<?xml version="1.0" encoding="iso-8859-1"?>
<!-- Uploaded to: SVG Repo, www.svgrepo.com, Generator: SVG Repo Mixer Tools -->
<svg fill="#000000" height="800px" width="800px" version="1.1" id="Layer_1" xmlns="http://www.w3.org/2000/svg" xmlns:xlink="http://www.w3.org/1999/xlink" 
	 viewBox="0 0 330 330" xml:space="preserve">
<g id="XMLID_103_">
	<path id="XMLID_104_" d="M150.402,106.204c0-41.466-33.735-75.201-75.201-75.201c-0.173,0-0.346,0.003-0.518,0.009H15
		c-8.284,0-15,6.716-15,15v237.995c0,8.284,6.716,15,15,15s15-6.716,15-15V181.413h45.201c0.142,0,0.283-0.002,0.424-0.006
		c24.729,0.229,44.777,20.416,44.777,45.198v57.401c0,8.284,6.716,15,15,15c8.284,0,15-6.716,15-15v-57.401
		c0-24.597-11.871-46.472-30.184-60.2C138.531,152.676,150.402,130.801,150.402,106.204z M75.201,151.405H30V61.012h45.201
		c0.15,0,0.3-0.002,0.449-0.006c24.719,0.24,44.752,20.424,44.752,45.199C120.402,131.128,100.125,151.405,75.201,151.405z"/>
	<path id="XMLID_107_" d="M318.88,30.511c-6.558-1.757-13.48,1.112-16.873,6.994L255,118.984l-47.007-81.479
		c-3.394-5.881-10.313-8.752-16.873-6.994c-6.559,1.756-11.12,7.7-11.12,14.49v240c0,8.284,6.716,15,15,15c8.284,0,15-6.716,15-15
		V101.018l32.007,55.479c2.679,4.643,7.632,7.504,12.993,7.504c5.361,0,10.314-2.861,12.993-7.504L300,101.018v183.983
		c0,8.284,6.716,15,15,15c8.284,0,15-6.716,15-15v-240C330,38.211,325.439,32.268,318.88,30.511z"/>
</g>
</svg>