<?xml version="1.0" encoding="iso-8859-1"?>
<!-- Uploaded to: SVG Repo, www.svgrepo.com, Generator: SVG Repo Mixer Tools -->
<!DOCTYPE svg PUBLIC "-//W3C//DTD SVG 1.1//EN" "http://www.w3.org/Graphics/SVG/1.1/DTD/svg11.dtd">
<svg fill="#000000" version="1.1" id="Capa_1" xmlns="http://www.w3.org/2000/svg" xmlns:xlink="http://www.w3.org/1999/xlink" 
	 width="800px" height="800px" viewBox="0 0 89.859 89.859"
	 xml:space="preserve">
<g>
	<g>
		<g>
			<g>
				<path d="M37.422,71.696h-7.839c-0.718,0-1.415-0.295-1.911-0.811L11.91,54.468v14.608c0,1.444-1.186,2.62-2.644,2.62H2.645
					C1.187,71.696,0,70.521,0,69.076V20.783c0-1.445,1.187-2.62,2.645-2.62h6.621c1.458,0,2.644,1.175,2.644,2.62v15.594
					L25.466,19.17c0.493-0.629,1.273-1.007,2.083-1.007h8.219c0.987,0,1.884,0.538,2.342,1.403c0.487,0.91,0.382,2.029-0.271,2.845
					L19.423,45.446l19.961,21.873c0.724,0.802,0.887,1.936,0.421,2.895C39.358,71.117,38.424,71.696,37.422,71.696z M29.728,68.696
					h6.852L16.343,46.521c-0.498-0.545-0.524-1.372-0.063-1.947l18.718-23.411h-7.282L11.589,41.633
					c-0.396,0.502-1.065,0.697-1.669,0.489c-0.604-0.209-1.009-0.778-1.009-1.417V21.162h-5.91v47.533h5.91V51.761
					c0-0.817,0.656-1.485,1.474-1.5l0.965-0.017c0.409,0,0.819,0.16,1.108,0.461L29.728,68.696z"/>
			</g>
		</g>
		<g>
			<g>
				<path d="M50.192,71.136L50.192,71.136h-4.745c-0.8,0-1.548-0.312-2.108-0.879c-0.551-0.541-0.862-1.291-0.862-2.092
					l0.107-46.479c0.005-1.634,1.337-2.963,2.971-2.963h7.654c1.26,0,2.387,0.798,2.803,1.986l7.928,22.473
					c0.769,2.276,1.447,4.354,2.048,6.269c0.629-1.922,1.339-4.001,2.14-6.269l8.29-22.516c0.429-1.162,1.548-1.943,2.788-1.943
					h7.653c1.638,0,2.971,1.332,2.971,2.97l0.03,46.472c0,0.797-0.311,1.543-0.875,2.104c-0.553,0.558-1.299,0.867-2.096,0.867
					h-4.871c-0.797,0-1.543-0.311-2.103-0.873c-0.557-0.556-0.866-1.303-0.866-2.097l0.006-22.627
					c-0.099,0.272-0.198,0.548-0.299,0.824l-8.168,22.54c-0.416,1.169-1.539,1.959-2.791,1.959h-4.551
					c-1.268,0-2.396-0.807-2.811-2.006l-7.289-21.354l0.003,20.236c0.021,0.139,0.03,0.279,0.03,0.427
					c0,1.622-1.308,2.945-2.924,2.97C50.234,71.136,50.213,71.136,50.192,71.136z M53.18,21.702l-7.625,0.02l-0.078,46.447
					l3.439-0.023c0.258-0.416,0.711-0.697,1.234-0.713l-0.006-29.394c0-0.742,0.543-1.373,1.277-1.483
					c0.737-0.108,1.438,0.333,1.656,1.042c0.766,2.486,1.63,5.154,2.641,8.157l7.555,22.129l4.521-0.021l8.139-22.523
					c1.191-3.26,2.238-6.249,3.199-9.142c0.232-0.699,0.938-1.122,1.664-1.008c0.727,0.118,1.26,0.746,1.26,1.481l-0.01,31.497
					l4.84-0.031l-0.06-46.441l-7.624,0.029l-8.255,22.476c-1.474,4.175-2.64,7.711-3.556,10.792
					c-0.189,0.637-0.774,1.072-1.438,1.072c-0.003,0-0.006,0-0.009,0c-0.667-0.004-1.251-0.448-1.434-1.09
					c-0.871-3.061-1.986-6.596-3.41-10.812L53.18,21.702z"/>
			</g>
		</g>
	</g>
</g>
</svg>