<?xml version="1.0" encoding="iso-8859-1"?>
<!-- Uploaded to: SVG Repo, www.svgrepo.com, Generator: SVG Repo Mixer Tools -->
<!DOCTYPE svg PUBLIC "-//W3C//DTD SVG 1.1//EN" "http://www.w3.org/Graphics/SVG/1.1/DTD/svg11.dtd">
<svg fill="#000000" version="1.1" id="Capa_1" xmlns="http://www.w3.org/2000/svg" xmlns:xlink="http://www.w3.org/1999/xlink" 
	 width="800px" height="800px" viewBox="0 0 373.921 373.921"
	 xml:space="preserve">
<g>
	<path d="M270.06,32.092C246.931,11.283,211.744,0.733,165.521,0.733L76.863,0c-1.575,0.127-3.331,0.647-4.534,1.847
		c-1.206,1.2-1.888,2.82-1.888,4.522v361.186c0,3.522,2.852,6.366,6.366,6.366h46.189c3.511,0,6.36-2.855,6.36-6.366V231.979
		c9.854,1.537,20.531,1.791,30.801,1.791c48.512,0,89.001-14.664,113.921-41.21c19.511-20.084,29.4-47.298,29.4-80.883
		C303.479,79,291.575,50.702,270.06,32.092z M161.213,183.884c-13.057,0-23.546-0.798-31.862-2.427V50.008l37.17,0.077
		c29.146,0,78.052,8.281,78.052,63.718C244.572,158.337,214.185,183.884,161.213,183.884z"/>
</g>
</svg>