<?xml version="1.0" encoding="utf-8"?><!-- Uploaded to: SVG Repo, www.svgrepo.com, Generator: SVG Repo Mixer Tools -->
<svg fill="#000000" width="800px" height="800px" viewBox="0 0 24 24" id="yuan" data-name="Flat Color" xmlns="http://www.w3.org/2000/svg" class="icon flat-color"><path id="primary" d="M18,14H13V12h5a1,1,0,0,0,0-2H14l4.8-6.4a1,1,0,1,0-1.6-1.2L12,9.33,6.8,2.4A1,1,0,1,0,5.2,3.6L10,10H6a1,1,0,0,0,0,2h5v2H6a1,1,0,0,0,0,2h5v5a1,1,0,0,0,2,0V16h5a1,1,0,0,0,0-2Z" style="fill: rgb(0, 0, 0);"></path></svg>