<?xml version="1.0" encoding="iso-8859-1"?>
<!-- Uploaded to: SVG Repo, www.svgrepo.com, Generator: SVG Repo Mixer Tools -->
<svg fill="#000000" height="800px" width="800px" version="1.1" id="Layer_1" xmlns="http://www.w3.org/2000/svg" xmlns:xlink="http://www.w3.org/1999/xlink" 
	 viewBox="0 0 512 512" xml:space="preserve">
<g>
	<g>
		<path d="M256.012,0c-141.156,0-256,114.844-256,256c0,141.16,114.844,256,256,256c141.148,0,255.976-114.84,255.976-256
			C511.988,114.844,397.16,0,256.012,0z M292.808,304H204v20h88.136c11.028,0,19.996,8.968,19.996,20c0,11.02-8.968,20-19.996,20
			H204v32.136c0,11.02-8.972,19.996-20,19.996c-11.024,0-20-8.976-20-19.996V364h-15.996c-11.032,0-19.996-8.98-19.996-20
			c0-11.032,8.964-20,19.996-20H164v-20h-15.996c-11.032,0-19.996-8.972-19.996-20c0-11.024,8.964-20,19.996-20H164V123.608
			C164,112.58,172.892,104,183.912,104h108.9c55.548,0,100.748,45.084,100.748,100.64C393.56,259.492,348.36,304,292.808,304z"/>
	</g>
</g>
<g>
	<g>
		<path d="M292.808,144H204v120h88.808c34.072,0,60.76-26,60.76-59.36C353.572,171.132,326.308,144,292.808,144z"/>
	</g>
</g>
</svg>