<?xml version="1.0" encoding="UTF-8"?>
<svg xmlns="http://www.w3.org/2000/svg" xmlns:xlink="http://www.w3.org/1999/xlink" width="30px" height="30px" viewBox="0 0 30 30" version="1.1">
<g id="surface1">
<path style=" stroke:none;fill-rule:nonzero;fill:rgb(0%,0%,0%);fill-opacity:1;" d="M 10.515625 5.972656 C 10.617188 6.035156 10.734375 6.066406 10.847656 6.066406 C 11.058594 6.066406 11.265625 5.957031 11.382812 5.765625 C 11.445312 5.667969 11.507812 5.570312 11.574219 5.476562 C 12.175781 4.648438 13.007812 4.089844 13.984375 3.871094 C 14.324219 3.792969 14.539062 3.457031 14.460938 3.117188 C 14.386719 2.777344 14.046875 2.5625 13.707031 2.640625 C 12.425781 2.929688 11.335938 3.65625 10.550781 4.738281 C 10.46875 4.855469 10.386719 4.980469 10.308594 5.101562 C 10.125 5.398438 10.21875 5.789062 10.515625 5.972656 Z M 10.515625 5.972656 "/>
<path style=" stroke:none;fill-rule:nonzero;fill:rgb(0%,0%,0%);fill-opacity:1;" d="M 15.613281 3.800781 C 15.617188 3.800781 15.621094 3.800781 15.625 3.800781 C 15.652344 3.804688 15.679688 3.808594 15.707031 3.808594 C 16.015625 3.808594 16.285156 3.574219 16.328125 3.257812 C 16.375 2.914062 16.128906 2.597656 15.785156 2.550781 C 15.773438 2.546875 15.765625 2.546875 15.753906 2.546875 C 15.40625 2.507812 15.097656 2.761719 15.058594 3.105469 C 15.023438 3.453125 15.269531 3.761719 15.613281 3.800781 Z M 15.613281 3.800781 "/>
<path style=" stroke:none;fill-rule:nonzero;fill:rgb(0%,0%,0%);fill-opacity:1;" d="M 27.972656 20.101562 C 26.511719 19.699219 24.980469 19.050781 23.660156 18.273438 C 23.464844 18.15625 23.21875 18.15625 23.019531 18.273438 C 22.816406 18.390625 22.613281 18.507812 22.410156 18.617188 C 21.324219 18.550781 20.550781 18.261719 20.011719 17.1875 C 21.320312 16.300781 21.789062 15.582031 22.3125 12.382812 C 22.347656 12.183594 22.394531 11.925781 22.453125 11.628906 C 22.769531 9.988281 23.242188 7.511719 22.773438 5.945312 C 22.234375 4.128906 21.203125 2.613281 19.800781 1.566406 C 18.429688 0.542969 16.773438 0 15 0 C 13.226562 0 11.570312 0.539062 10.199219 1.5625 C 8.796875 2.613281 7.765625 4.128906 7.226562 5.945312 C 6.757812 7.511719 7.230469 9.988281 7.546875 11.628906 C 7.605469 11.925781 7.652344 12.183594 7.6875 12.382812 C 8.214844 15.597656 8.6875 16.308594 10.011719 17.203125 C 9.589844 18.019531 8.648438 18.421875 7.25 18.957031 C 5.996094 19.441406 4.578125 19.984375 3.464844 21.136719 C 2.183594 22.464844 1.5625 24.339844 1.5625 26.871094 C 1.5625 27.21875 1.84375 27.5 2.191406 27.5 L 19.695312 27.5 C 19.9375 27.824219 20.191406 28.105469 20.433594 28.339844 C 21.480469 29.367188 22.757812 30 23.339844 30 C 23.925781 30 25.203125 29.367188 26.25 28.339844 C 27.246094 27.363281 28.4375 25.65625 28.4375 23.078125 L 28.4375 20.710938 C 28.4375 20.425781 28.25 20.175781 27.972656 20.101562 Z M 8.433594 6.304688 C 9.363281 3.195312 11.878906 1.261719 15 1.261719 C 18.121094 1.261719 20.636719 3.195312 21.566406 6.304688 C 21.734375 6.871094 21.738281 7.65625 21.664062 8.480469 C 20.289062 8.015625 19.546875 6.144531 19.539062 6.125 C 19.464844 5.929688 19.296875 5.785156 19.09375 5.734375 C 18.890625 5.6875 18.675781 5.746094 18.523438 5.886719 C 15.566406 8.621094 10.394531 7.011719 10.339844 6.992188 C 10.0625 6.902344 9.757812 7.019531 9.605469 7.269531 C 9.382812 7.640625 8.839844 8.011719 8.320312 8.285156 C 8.265625 7.53125 8.277344 6.824219 8.433594 6.304688 Z M 8.929688 12.179688 C 8.894531 11.964844 8.84375 11.699219 8.785156 11.390625 C 8.691406 10.886719 8.570312 10.265625 8.472656 9.613281 C 9.003906 9.375 9.839844 8.933594 10.390625 8.316406 C 11.722656 8.660156 15.769531 9.453125 18.730469 7.339844 C 19.195312 8.164062 20.105469 9.398438 21.507812 9.75 C 21.414062 10.351562 21.304688 10.921875 21.214844 11.390625 C 21.15625 11.699219 21.105469 11.964844 21.070312 12.179688 C 20.542969 15.363281 20.214844 15.574219 18.824219 16.457031 C 18.589844 16.605469 18.328125 16.773438 18.035156 16.972656 C 17.027344 17.550781 16.003906 17.84375 15 17.84375 C 13.992188 17.84375 12.972656 17.550781 11.964844 16.972656 C 11.671875 16.773438 11.410156 16.605469 11.175781 16.457031 C 11.15625 16.445312 11.136719 16.433594 11.117188 16.421875 C 11.117188 16.421875 11.117188 16.417969 11.113281 16.417969 C 9.777344 15.566406 9.449219 15.316406 8.929688 12.179688 Z M 15 26.238281 L 2.839844 26.238281 C 3.046875 21.925781 5.410156 21.015625 7.703125 20.136719 C 9.023438 19.628906 10.386719 19.105469 11.074219 17.894531 C 11.140625 17.9375 11.207031 17.980469 11.277344 18.027344 L 11.316406 18.054688 C 12.523438 18.75 13.761719 19.105469 15 19.105469 C 16.238281 19.105469 17.476562 18.75 18.683594 18.054688 L 18.722656 18.027344 C 18.800781 17.976562 18.875 17.925781 18.949219 17.878906 C 19.394531 18.699219 19.960938 19.1875 20.574219 19.476562 C 19.96875 19.71875 19.347656 19.925781 18.707031 20.101562 C 18.433594 20.175781 18.242188 20.425781 18.242188 20.710938 L 18.242188 23.078125 C 18.242188 23.304688 18.253906 23.527344 18.269531 23.738281 L 14.34375 23.738281 C 13.996094 23.738281 13.714844 24.023438 13.714844 24.371094 C 13.714844 24.71875 13.996094 25.003906 14.34375 25.003906 L 18.484375 25.003906 C 18.601562 25.453125 18.753906 25.863281 18.929688 26.238281 Z M 23.339844 28.734375 C 23.035156 28.675781 21.601562 28.03125 20.574219 26.574219 C 20.554688 26.53125 20.527344 26.496094 20.5 26.460938 C 20.097656 25.863281 19.769531 25.132812 19.609375 24.261719 C 19.609375 24.253906 19.609375 24.246094 19.605469 24.238281 C 19.542969 23.878906 19.507812 23.492188 19.507812 23.078125 L 19.507812 21.183594 C 20.667969 20.835938 21.769531 20.382812 22.847656 19.816406 C 22.847656 19.8125 22.847656 19.8125 22.851562 19.8125 C 23.015625 19.726562 23.179688 19.636719 23.339844 19.542969 C 24.546875 20.222656 25.859375 20.785156 27.175781 21.183594 L 27.175781 23.078125 C 27.175781 27.070312 23.824219 28.640625 23.339844 28.734375 Z M 23.339844 28.734375 "/>
<path style=" stroke:none;fill-rule:nonzero;fill:rgb(0%,0%,0%);fill-opacity:1;" d="M 24.75 22.40625 L 22.714844 24.441406 L 21.929688 23.65625 C 21.683594 23.40625 21.285156 23.40625 21.039062 23.65625 C 20.792969 23.902344 20.792969 24.300781 21.039062 24.546875 L 22.269531 25.777344 C 22.394531 25.902344 22.554688 25.964844 22.714844 25.964844 C 22.878906 25.964844 23.039062 25.902344 23.164062 25.777344 L 25.644531 23.296875 C 25.890625 23.050781 25.890625 22.652344 25.644531 22.40625 C 25.398438 22.160156 24.996094 22.160156 24.75 22.40625 Z M 24.75 22.40625 "/>
<path style=" stroke:none;fill-rule:nonzero;fill:rgb(0%,0%,0%);fill-opacity:1;" d="M 12.535156 23.738281 L 12.488281 23.738281 C 12.140625 23.738281 11.859375 24.023438 11.859375 24.371094 C 11.859375 24.71875 12.140625 25.003906 12.488281 25.003906 L 12.535156 25.003906 C 12.882812 25.003906 13.167969 24.71875 13.167969 24.371094 C 13.167969 24.023438 12.882812 23.738281 12.535156 23.738281 Z M 12.535156 23.738281 "/>
<path style=" stroke:none;fill-rule:nonzero;fill:rgb(0%,0%,0%);fill-opacity:1;" d="M 12.46875 12.441406 C 12.898438 12.441406 13.25 12.089844 13.25 11.660156 C 13.25 11.230469 12.898438 10.878906 12.46875 10.878906 C 12.039062 10.878906 11.6875 11.230469 11.6875 11.660156 C 11.6875 12.089844 12.039062 12.441406 12.46875 12.441406 Z M 12.46875 12.441406 "/>
<path style=" stroke:none;fill-rule:nonzero;fill:rgb(0%,0%,0%);fill-opacity:1;" d="M 17.53125 12.441406 C 17.960938 12.441406 18.3125 12.089844 18.3125 11.660156 C 18.3125 11.230469 17.960938 10.878906 17.53125 10.878906 C 17.101562 10.878906 16.75 11.230469 16.75 11.660156 C 16.75 12.089844 17.101562 12.441406 17.53125 12.441406 Z M 17.53125 12.441406 "/>
</g>
</svg>
