<?xml version="1.0" encoding="iso-8859-1"?>
<!-- Uploaded to: SVG Repo, www.svgrepo.com, Generator: SVG Repo Mixer Tools -->
<!DOCTYPE svg PUBLIC "-//W3C//DTD SVG 1.1//EN" "http://www.w3.org/Graphics/SVG/1.1/DTD/svg11.dtd">
<svg fill="#000000" height="800px" width="800px" version="1.1" id="Capa_1" xmlns="http://www.w3.org/2000/svg" xmlns:xlink="http://www.w3.org/1999/xlink" 
	 viewBox="0 0 220 220" xml:space="preserve">
<g>
	<path d="M110,0C49.346,0,0,49.346,0,110s49.346,110,110,110s110-49.346,110-110S170.654,0,110,0z M110,210
		c-55.141,0-100-44.86-100-100S54.859,10,110,10s100,44.86,100,100S165.141,210,110,210z"/>
	<path d="M110,19.5c-49.902,0-90.5,40.598-90.5,90.5s40.598,90.5,90.5,90.5s90.5-40.598,90.5-90.5S159.902,19.5,110,19.5z
		 M110,197.5c-48.248,0-87.5-39.252-87.5-87.5S61.752,22.5,110,22.5s87.5,39.252,87.5,87.5S158.248,197.5,110,197.5z"/>
	<path d="M115.148,143.699c-1.929,0.519-3.927,0.796-5.975,0.796c-16.024,0-29.061-16.726-29.061-37.285
		s13.036-37.285,29.061-37.285s29.061,16.726,29.061,37.285c0,11.693-4.22,22.14-10.805,28.982l8.411,8.449
		c8.801-9.046,14.394-22.465,14.394-37.431c0-27.176-18.42-49.285-41.061-49.285s-41.061,22.109-41.061,49.285
		s18.42,49.285,41.061,49.285c5.372,0,10.501-1.258,15.208-3.52L115.148,143.699z"/>
	<path d="M128.794,154.572c2.884,2.904,6.73,4.503,10.833,4.503c4.06,0,7.877-1.57,10.75-4.421
		c2.894-2.871,4.495-6.698,4.511-10.774c0.014-3.742-1.311-7.282-3.748-10.076l-7.142,7.089c0.582,0.865,0.894,1.883,0.89,2.949
		c-0.006,1.406-0.559,2.725-1.556,3.714c-2.058,2.042-5.396,2.029-7.446-0.034l-25.061-25.176l-7.087,7.055L128.794,154.572z"/>
</g>
</svg>