<?xml version="1.0" encoding="iso-8859-1"?>
<!-- Uploaded to: SVG Repo, www.svgrepo.com, Generator: SVG Repo Mixer Tools -->
<!DOCTYPE svg PUBLIC "-//W3C//DTD SVG 1.1//EN" "http://www.w3.org/Graphics/SVG/1.1/DTD/svg11.dtd">
<svg fill="#000000" height="800px" width="800px" version="1.1" id="Capa_1" xmlns="http://www.w3.org/2000/svg" xmlns:xlink="http://www.w3.org/1999/xlink" 
	 viewBox="0 0 470 470" xml:space="preserve">
<g>
	<path d="M401.17,68.83C356.785,24.444,297.771,0,235,0S113.215,24.444,68.83,68.83C24.444,113.216,0,172.229,0,235
		s24.444,121.784,68.83,166.17C113.215,445.556,172.229,470,235,470s121.785-24.444,166.17-68.83
		C445.556,356.784,470,297.771,470,235S445.556,113.216,401.17,68.83z M235,455c-121.309,0-220-98.691-220-220S113.691,15,235,15
		s220,98.691,220,220S356.309,455,235,455z"/>
	<path d="M419.199,271.102c0.77-0.814,1.35-1.789,1.695-2.855c5.524-9.843,8.69-21.18,8.69-33.247
		c0-18.863-7.705-35.959-20.129-48.313C387.849,108.459,316.415,54,235,54c-39.762,0-77.495,12.648-109.119,36.578
		c-29.932,22.649-52.449,54.625-63.624,90.249c-9.845,7.839-16.174,19.915-16.174,33.448v69.434
		c-3.254,0.819-5.667,3.756-5.667,7.265c0,4.143,3.358,7.5,7.5,7.5h17.537C91.831,368.993,159.285,416,235,416
		c81.415,0,152.849-54.459,174.454-132.687C413.15,279.638,416.418,275.538,419.199,271.102z M413.623,245.021
		c-10.718-19.957-28.66-32.979-48.927-34.734l-4.266-8.361c-1.882-3.69-6.4-5.153-10.089-3.272
		c-3.69,1.882-5.155,6.399-3.272,10.089l1.971,3.862c-7.509,3.67-12.926,10.984-13.922,19.627l-8.822,9.309
		c-2.85,3.006-2.722,7.753,0.284,10.603c3.006,2.85,7.753,2.722,10.603-0.284l10.728-11.318c1.35-1.424,2.088-3.32,2.056-5.283
		c-0.002-0.105-0.005-0.21-0.011-0.316c0.094-5.452,4.555-9.858,10.027-9.866c0.006,0,0.013,0.001,0.019,0.001
		c0.007,0,0.014-0.001,0.022-0.001c20.288,0.015,38.257,15.749,45.552,39.502c-8.229,12.247-21.414,20.89-36.658,23.052V258.5
		c3.489-1.333,6.68-3.435,9.282-6.189c2.845-3.011,2.71-7.758-0.301-10.603c-3.011-2.845-7.758-2.71-10.602,0.302
		c-1.918,2.029-4.51,3.147-7.301,3.147c-4.142,0-7.5,3.357-7.5,7.5c0,1.638,0.531,3.148,1.422,4.382v30.588
		C328.141,283.971,308.25,261.77,308.25,235c0-29.316,23.851-53.167,53.167-53.167c29.316,0,53.167,23.851,53.167,53.167
		C414.583,238.426,414.245,241.773,413.623,245.021z M88.833,186.525c15.301,0,27.75,12.448,27.75,27.75v69.199h-20.25v-44.842
		l0.934,0.539c1.181,0.682,2.471,1.006,3.743,1.006c2.592,0,5.113-1.345,6.502-3.751c2.071-3.587,0.842-8.174-2.745-10.245
		l-0.934-0.539l0.934-0.539c3.587-2.07,4.816-6.657,2.745-10.245s-6.659-4.815-10.245-2.745l-0.934,0.539v-1.079
		c0-4.143-3.358-7.5-7.5-7.5s-7.5,3.357-7.5,7.5v1.078l-0.934-0.539c-3.588-2.07-8.174-0.844-10.245,2.745
		c-2.071,3.587-0.842,8.174,2.745,10.245l0.934,0.539l-0.934,0.539c-3.587,2.07-4.816,6.657-2.745,10.245
		c1.389,2.406,3.91,3.751,6.502,3.751c1.272,0,2.562-0.324,3.743-1.006l0.934-0.539v44.843h-20.25v-69.199
		C61.083,198.974,73.532,186.525,88.833,186.525z M235,401c-67.544,0-127.921-40.784-153.434-102.525h48.184
		c4.142,0,7.5-3.357,7.5-7.5c0-3.509-2.412-6.446-5.667-7.265v-69.435c0-23.572-19.178-42.75-42.75-42.75
		c-2.57,0-5.084,0.241-7.531,0.678C106.531,110.712,167.576,69,235,69c68.235,0,128.832,41.702,153.888,103.635
		c-8.41-3.719-17.7-5.802-27.472-5.802c-37.587,0-68.167,30.58-68.167,68.167s30.58,68.167,68.167,68.167
		c9.772,0,19.062-2.083,27.472-5.802C363.832,359.298,303.235,401,235,401z"/>
	<path d="M215.25,166.833c-37.587,0-68.167,30.58-68.167,68.167c0,12.066,3.165,23.402,8.688,33.245
		c0.345,1.067,0.926,2.044,1.698,2.859c12.064,19.237,33.447,32.063,57.781,32.063c37.587,0,68.167-30.58,68.167-68.167
		S252.837,166.833,215.25,166.833z M222.75,287.628V257.04c0.891-1.233,1.422-2.744,1.422-4.382c0-4.143-3.358-7.5-7.5-7.5
		c-2.79,0-5.383-1.118-7.301-3.147c-2.845-3.012-7.592-3.146-10.602-0.302c-3.011,2.845-3.146,7.592-0.301,10.603
		c2.602,2.754,5.793,4.855,9.282,6.189v29.127c-15.244-2.163-28.429-10.806-36.658-23.053c7.296-23.752,25.264-39.487,45.552-39.5
		c0.007,0,0.014,0.001,0.022,0.001c0.006,0,0.013-0.001,0.019-0.001c5.474,0.007,9.937,4.417,10.027,9.872
		c-0.005,0.103-0.009,0.206-0.011,0.31c-0.032,1.963,0.706,3.859,2.056,5.283l10.727,11.318c2.849,3.006,7.597,3.135,10.603,0.284
		c3.006-2.85,3.134-7.596,0.284-10.603l-8.823-9.31c-0.996-8.642-6.413-15.956-13.922-19.625l1.971-3.863
		c1.882-3.689,0.417-8.207-3.272-10.089c-3.69-1.881-8.207-0.416-10.089,3.272l-4.266,8.362
		c-20.265,1.755-38.207,14.778-48.926,34.733c-0.622-3.248-0.96-6.595-0.96-10.021c0-29.316,23.851-53.167,53.167-53.167
		s53.167,23.851,53.167,53.167C268.417,261.77,248.526,283.971,222.75,287.628z"/>
	<path d="M375.69,367.564c-36.913,39.214-86.877,60.811-140.69,60.811s-103.777-21.597-140.69-60.811
		c-2.838-3.016-7.585-3.159-10.602-0.32s-3.16,7.585-0.32,10.602c19.269,20.471,42.021,36.582,67.627,47.887
		c26.515,11.707,54.772,17.643,83.984,17.643s57.469-5.936,83.984-17.643c25.606-11.305,48.359-27.416,67.627-47.887
		c2.839-3.017,2.696-7.763-0.32-10.602C383.276,364.405,378.529,364.55,375.69,367.564z"/>
	<path d="M249.447,42.543c48.178,3.562,93.012,24.965,126.243,60.268c1.476,1.567,3.467,2.359,5.462,2.359
		c1.843,0,3.691-0.676,5.139-2.039c3.016-2.839,3.16-7.585,0.32-10.602c-35.809-38.042-84.129-61.107-136.059-64.945
		c-4.115-0.285-7.727,2.796-8.032,6.927S245.316,42.237,249.447,42.543z"/>
	<path d="M88.848,105.17c1.996,0,3.987-0.792,5.462-2.359c33.231-35.303,78.065-56.706,126.243-60.268
		c4.131-0.306,7.232-3.901,6.927-8.032c-0.306-4.132-3.912-7.227-8.032-6.927c-51.93,3.838-100.25,26.903-136.059,64.945
		c-2.839,3.017-2.696,7.763,0.32,10.602C85.157,104.494,87.004,105.17,88.848,105.17z"/>
</g>
</svg>