<?xml version="1.0" encoding="iso-8859-1"?>
<!-- Uploaded to: SVG Repo, www.svgrepo.com, Generator: SVG Repo Mixer Tools -->
<svg fill="#000000" height="800px" width="800px" version="1.1" id="Layer_1" xmlns="http://www.w3.org/2000/svg" xmlns:xlink="http://www.w3.org/1999/xlink" 
	 viewBox="0 0 269.992 269.992" xml:space="preserve">
<g id="XMLID_30_">
	<path id="XMLID_31_" d="M134.982,239.992H69.337l79.047-157.221c2.338-4.65,2.099-10.179-0.633-14.609
		c-2.731-4.431-7.563-7.128-12.768-7.128H45.006c-8.284,0-15,6.716-15,15s6.716,15,15,15h65.646L31.604,248.254
		c-2.338,4.65-2.099,10.179,0.633,14.609c2.731,4.431,7.563,7.128,12.769,7.128h89.977c8.284,0,15-6.716,15-15
		C149.982,246.708,143.267,239.992,134.982,239.992z"/>
	<path id="XMLID_71_" d="M239.213,170.249c-2.62-7.859-11.117-12.107-18.974-9.487l-10.257,3.419V15c0-8.284-6.716-15-15-15
		s-15,6.716-15,15v159.181l-19.743,6.581c-7.859,2.62-12.106,11.115-9.487,18.974c2.096,6.286,7.947,10.26,14.229,10.26
		c1.572,0,3.172-0.249,4.745-0.773l10.257-3.419v49.189c0,8.284,6.716,15,15,15s15-6.716,15-15v-59.189l19.743-6.581
		C237.585,186.602,241.832,178.108,239.213,170.249z"/>
</g>
</svg>