<?xml version="1.0" encoding="UTF-8"?>
<svg xmlns="http://www.w3.org/2000/svg" xmlns:xlink="http://www.w3.org/1999/xlink" width="20px" height="20px" viewBox="0 0 20 20" version="1.1">
<g id="surface1">
<path style=" stroke:none;fill-rule:nonzero;fill:rgb(34.117647%,31.372549%,44.705882%);fill-opacity:1;" d="M 0.691406 14.007812 C 1.042969 13.660156 1.609375 13.660156 1.960938 14.007812 L 6.144531 18.195312 C 6.496094 18.546875 6.496094 19.113281 6.144531 19.464844 C 5.796875 19.8125 5.230469 19.8125 4.878906 19.464844 L 0.691406 15.277344 C 0.34375 14.925781 0.34375 14.359375 0.691406 14.007812 Z M 0.691406 14.007812 "/>
<path style=" stroke:none;fill-rule:nonzero;fill:rgb(21.176471%,20%,32.941176%);fill-opacity:1;" d="M 6.144531 18.195312 L 1.960938 14.011719 C 1.609375 13.660156 1.042969 13.660156 0.695312 14.011719 C 0.597656 14.113281 0.523438 14.234375 0.484375 14.371094 C 0.804688 14.265625 1.152344 14.34375 1.394531 14.578125 L 5.582031 18.765625 C 5.816406 19.007812 5.894531 19.355469 5.789062 19.675781 C 5.925781 19.636719 6.046875 19.5625 6.148438 19.464844 C 6.320312 19.296875 6.414062 19.070312 6.414062 18.832031 C 6.410156 18.59375 6.316406 18.363281 6.144531 18.195312 Z M 6.144531 18.195312 "/>
<path style="fill:none;stroke-width:4;stroke-linecap:round;stroke-linejoin:round;stroke:rgb(15.686275%,10.196078%,23.137255%);stroke-opacity:1;stroke-miterlimit:4;" d="M 16.412832 61.819694 C 18.786059 61.832952 20.708506 63.755399 20.721764 66.128626 L 20.708506 94.541061 C 20.708506 96.927546 18.786059 98.849992 16.399574 98.849992 C 14.039605 98.849992 12.117159 96.927546 12.1039 94.554319 L 12.1039 66.128626 C 12.117159 63.755399 14.039605 61.832952 16.412832 61.819694 Z M 16.412832 61.819694 " transform="matrix(0.147314,-0.147314,0.147314,0.147314,-10.833333,7.31875)"/>
<path style="fill-rule:nonzero;fill:rgb(91.764706%,91.764706%,91.764706%);fill-opacity:1;stroke-width:4;stroke-linecap:round;stroke-linejoin:round;stroke:rgb(15.686275%,10.196078%,23.137255%);stroke-opacity:1;stroke-miterlimit:4;" d="M 16.926369 66.91705 L 34.13558 66.91705 L 34.13558 75.508398 L 16.926369 75.508398 Z M 16.926369 66.91705 " transform="matrix(0.147314,-0.147314,0.147314,0.147314,-8.933333,8.108333)"/>
<path style=" stroke:none;fill-rule:nonzero;fill:rgb(91.764706%,91.764706%,91.764706%);fill-opacity:1;" d="M 8.488281 15.46875 L 4.6875 11.667969 L 12.199219 4.152344 C 12.535156 3.816406 12.992188 3.625 13.46875 3.625 C 13.941406 3.625 14.398438 3.816406 14.734375 4.152344 L 16.003906 5.417969 C 16.339844 5.753906 16.53125 6.207031 16.53125 6.683594 C 16.53125 7.160156 16.339844 7.617188 16.003906 7.953125 Z M 8.488281 15.46875 "/>
<path style=" stroke:none;fill-rule:nonzero;fill:rgb(76.078431%,82.352941%,82.745098%);fill-opacity:1;" d="M 11.816406 10.890625 L 9.523438 13.183594 C 8.605469 14.105469 7.113281 14.105469 6.191406 13.183594 L 8.484375 15.476562 L 12.441406 11.515625 Z M 11.816406 10.890625 "/>
<path style="fill:none;stroke-width:4;stroke-linecap:round;stroke-linejoin:round;stroke:rgb(15.686275%,10.196078%,23.137255%);stroke-opacity:1;stroke-miterlimit:4;" d="M 40.74375 74.25 L 22.5 56.00625 L 58.55625 19.93125 C 60.16875 18.31875 62.3625 17.4 64.65 17.4 C 66.91875 17.4 69.1125 18.31875 70.725 19.93125 L 76.81875 26.00625 C 78.43125 27.61875 79.35 29.79375 79.35 32.08125 C 79.35 34.36875 78.43125 36.5625 76.81875 38.175 Z M 40.74375 74.25 " transform="matrix(0.208333,0,0,0.208333,0,0)"/>
<path style=" stroke:none;fill-rule:nonzero;fill:rgb(66.666667%,88.235294%,91.372549%);fill-opacity:1;" d="M 12.441406 11.515625 L 8.640625 7.707031 L 12.199219 4.152344 C 12.535156 3.816406 12.992188 3.625 13.46875 3.625 C 13.941406 3.625 14.398438 3.816406 14.734375 4.152344 L 16.003906 5.417969 C 16.339844 5.753906 16.53125 6.207031 16.53125 6.683594 C 16.53125 7.160156 16.339844 7.617188 16.003906 7.953125 Z M 12.441406 11.515625 "/>
<path style="fill:none;stroke-width:4;stroke-linecap:round;stroke-linejoin:round;stroke:rgb(15.686275%,10.196078%,23.137255%);stroke-opacity:1;stroke-miterlimit:4;" d="M 93.99375 2.75625 L 79.85625 16.89375 " transform="matrix(0.208333,0,0,0.208333,0,0)"/>
<path style="fill-rule:nonzero;fill:rgb(91.764706%,91.764706%,91.764706%);fill-opacity:1;stroke-width:4;stroke-linecap:round;stroke-linejoin:round;stroke:rgb(15.686275%,10.196078%,23.137255%);stroke-opacity:1;stroke-miterlimit:4;" d="M 76.81875 26.00625 L 70.74375 19.9125 L 73.74375 16.9125 C 75.4125 15.24375 78.15 15.24375 79.81875 16.9125 C 81.50625 18.6 81.50625 21.31875 79.81875 23.00625 Z M 76.81875 26.00625 " transform="matrix(0.208333,0,0,0.208333,0,0)"/>
<path style="fill:none;stroke-width:4;stroke-linecap:round;stroke-linejoin:round;stroke:rgb(15.686275%,10.196078%,23.137255%);stroke-opacity:1;stroke-miterlimit:4;" d="M 52.33125 26.15625 L 56.4 30.225 " transform="matrix(0.208333,0,0,0.208333,0,0)"/>
<path style="fill:none;stroke-width:4;stroke-linecap:round;stroke-linejoin:round;stroke:rgb(15.686275%,10.196078%,23.137255%);stroke-opacity:1;stroke-miterlimit:4;" d="M 46.9125 31.59375 L 53.68125 38.3625 " transform="matrix(0.208333,0,0,0.208333,0,0)"/>
<path style="fill:none;stroke-width:4;stroke-linecap:round;stroke-linejoin:round;stroke:rgb(15.686275%,10.196078%,23.137255%);stroke-opacity:1;stroke-miterlimit:4;" d="M 41.49375 37.0125 L 45.5625 41.0625 " transform="matrix(0.208333,0,0,0.208333,0,0)"/>
<path style="fill:none;stroke-width:4;stroke-linecap:round;stroke-linejoin:round;stroke:rgb(15.686275%,10.196078%,23.137255%);stroke-opacity:1;stroke-miterlimit:4;" d="M 36.075 42.43125 L 42.84375 49.2 " transform="matrix(0.208333,0,0,0.208333,0,0)"/>
<path style="fill:none;stroke-width:4;stroke-linecap:round;stroke-linejoin:round;stroke:rgb(15.686275%,10.196078%,23.137255%);stroke-opacity:1;stroke-miterlimit:4;" d="M 30.65625 47.85 L 34.70625 51.91875 " transform="matrix(0.208333,0,0,0.208333,0,0)"/>
<path style=" stroke:none;fill-rule:nonzero;fill:rgb(45.882353%,78.823529%,78.823529%);fill-opacity:1;" d="M 16.003906 7.957031 L 12.5 11.457031 L 12.414062 11.496094 L 12.367188 11.519531 L 11.742188 10.894531 L 13.773438 8.863281 C 14.476562 8.164062 14.476562 7.027344 13.773438 6.328125 L 13.566406 6.117188 C 12.644531 5.199219 11.152344 5.199219 10.234375 6.117188 L 12.199219 4.152344 C 12.898438 3.453125 14.03125 3.453125 14.734375 4.152344 L 16.003906 5.417969 C 16.339844 5.753906 16.53125 6.210938 16.53125 6.6875 C 16.53125 7.164062 16.339844 7.621094 16.003906 7.957031 Z M 16.003906 7.957031 "/>
<path style="fill:none;stroke-width:4;stroke-linecap:round;stroke-linejoin:round;stroke:rgb(15.686275%,10.196078%,23.137255%);stroke-opacity:1;stroke-miterlimit:4;" d="M 76.81875 38.19375 L 60 54.99375 L 59.7 55.29375 L 41.475 36.99375 L 58.55625 19.9125 C 61.9125 16.55625 67.36875 16.55625 70.725 19.9125 L 76.81875 26.00625 C 78.43125 27.61875 79.35 29.8125 79.35 32.1 C 79.35 34.3875 78.43125 36.58125 76.81875 38.19375 Z M 76.81875 38.19375 " transform="matrix(0.208333,0,0,0.208333,0,0)"/>
<path style="fill:none;stroke-width:4;stroke-linecap:round;stroke-linejoin:round;stroke:rgb(15.686275%,10.196078%,23.137255%);stroke-opacity:1;stroke-miterlimit:4;" d="M 57.75 20.7375 L 64.5375 27.525 " transform="matrix(0.208333,0,0,0.208333,0,0)"/>
<path style="fill:none;stroke-width:4;stroke-linecap:round;stroke-linejoin:round;stroke:rgb(15.686275%,10.196078%,23.137255%);stroke-opacity:1;stroke-miterlimit:4;" d="M 16.40625 49.9125 L 46.8375 80.34375 " transform="matrix(0.208333,0,0,0.208333,0,0)"/>
</g>
</svg>
