<?xml version="1.0" encoding="iso-8859-1"?>
<!-- Uploaded to: SVG Repo, www.svgrepo.com, Generator: SVG Repo Mixer Tools -->
<!DOCTYPE svg PUBLIC "-//W3C//DTD SVG 1.1//EN" "http://www.w3.org/Graphics/SVG/1.1/DTD/svg11.dtd">
<svg fill="#000000" version="1.1" id="Capa_1" xmlns="http://www.w3.org/2000/svg" xmlns:xlink="http://www.w3.org/1999/xlink" 
	 viewBox="0 0 220 220" xml:space="preserve">
<g>
	<path d="M110,0C49.346,0,0,49.346,0,110s49.346,110,110,110s110-49.346,110-110S170.654,0,110,0z M110,210
		c-55.141,0-100-44.86-100-100S54.859,10,110,10s100,44.86,100,100S165.141,210,110,210z"/>
	<path d="M110,19.5c-49.902,0-90.5,40.598-90.5,90.5s40.598,90.5,90.5,90.5s90.5-40.598,90.5-90.5S159.902,19.5,110,19.5z
		 M110,197.5c-48.248,0-87.5-39.252-87.5-87.5S61.752,22.5,110,22.5s87.5,39.252,87.5,87.5S158.248,197.5,110,197.5z"/>
	<path d="M96.5,145.863c-6.468-3.966-10.792-11.101-10.792-19.228v-33.27c0-8.127,4.324-15.262,10.792-19.228V60.885
		c-13.279,4.818-22.792,17.558-22.792,32.48v33.27c0,14.922,9.513,27.662,22.792,32.48V145.863z"/>
	<polygon points="119.27,127.89 134.292,127.89 134.292,149.175 112.5,149.175 112.5,161.175 146.292,161.175 146.292,115.89 
		119.27,115.89 	"/>
	<rect x="112.5" y="58.825" width="27.792" height="12"/>
	<rect x="98.5" y="52" width="12" height="116"/>
</g>
</svg>