<?xml version="1.0" encoding="UTF-8"?>
<svg xmlns="http://www.w3.org/2000/svg" xmlns:xlink="http://www.w3.org/1999/xlink" width="20px" height="20px" viewBox="0 0 20 20" version="1.1">
<g id="surface1">
<path style=" stroke:none;fill-rule:nonzero;fill:rgb(20.392157%,43.137255%,63.137255%);fill-opacity:1;" d="M 10.832031 11.667969 L 10.832031 15 C 10.832031 15.457031 10.457031 15.832031 10 15.832031 C 9.542969 15.832031 9.167969 15.457031 9.167969 15 L 9.167969 11.667969 C 9.167969 11.207031 9.542969 10.832031 10 10.832031 C 10.457031 10.832031 10.832031 11.207031 10.832031 11.667969 Z M 10.832031 11.667969 "/>
<path style=" stroke:none;fill-rule:nonzero;fill:rgb(100%,74.901961%,25.882353%);fill-opacity:1;" d="M 6.667969 9.152344 L 5.832031 9.152344 C 3.535156 9.152344 1.667969 7.285156 1.667969 4.988281 L 1.667969 4.179688 C 1.667969 3.71875 2.039062 3.347656 2.5 3.347656 L 6.667969 3.347656 C 7.125 3.347656 7.5 3.71875 7.5 4.179688 L 7.5 8.320312 C 7.5 8.78125 7.125 9.152344 6.667969 9.152344 Z M 3.332031 5.011719 C 3.347656 6.378906 4.464844 7.488281 5.832031 7.488281 L 5.832031 5.011719 Z M 3.332031 5.011719 "/>
<path style=" stroke:none;fill-rule:nonzero;fill:rgb(100%,74.901961%,25.882353%);fill-opacity:1;" d="M 6.667969 9.167969 L 5.832031 9.167969 C 3.535156 9.167969 1.667969 7.296875 1.667969 5 L 1.667969 4.167969 C 1.667969 3.707031 2.039062 3.332031 2.5 3.332031 L 6.667969 3.332031 C 7.125 3.332031 7.5 3.707031 7.5 4.167969 L 7.5 8.332031 C 7.5 8.792969 7.125 9.167969 6.667969 9.167969 Z M 3.332031 5 C 3.332031 6.378906 4.453125 7.5 5.832031 7.5 L 5.832031 5 Z M 3.332031 5 "/>
<path style=" stroke:none;fill-rule:nonzero;fill:rgb(100%,74.901961%,25.882353%);fill-opacity:1;" d="M 14.167969 9.167969 L 13.332031 9.167969 C 12.875 9.167969 12.5 8.792969 12.5 8.332031 L 12.5 4.167969 C 12.5 3.707031 12.875 3.332031 13.332031 3.332031 L 17.5 3.332031 C 17.960938 3.332031 18.332031 3.707031 18.332031 4.167969 L 18.332031 5 C 18.332031 7.296875 16.464844 9.167969 14.167969 9.167969 Z M 14.167969 5 L 14.167969 7.5 C 15.546875 7.5 16.667969 6.378906 16.667969 5 Z M 14.167969 5 "/>
<path style=" stroke:none;fill-rule:nonzero;fill:rgb(20.392157%,43.137255%,63.137255%);fill-opacity:1;" d="M 14.167969 15.832031 L 14.167969 17.5 C 14.167969 17.957031 13.792969 18.332031 13.332031 18.332031 L 6.667969 18.332031 C 6.207031 18.332031 5.832031 17.957031 5.832031 17.5 L 5.832031 15.832031 C 5.832031 14.917969 6.582031 14.167969 7.5 14.167969 L 12.5 14.167969 C 13.417969 14.167969 14.167969 14.917969 14.167969 15.832031 Z M 14.167969 15.832031 "/>
<path style=" stroke:none;fill-rule:nonzero;fill:rgb(90.588235%,36.470588%,30.196078%);fill-opacity:1;" d="M 14.167969 2.5 L 14.167969 8.332031 C 14.167969 9.816406 13.367188 11.199219 12.082031 11.941406 C 11.441406 12.308594 10.726562 12.5 10 12.5 C 9.273438 12.5 8.558594 12.308594 7.917969 11.941406 C 6.632812 11.199219 5.832031 9.816406 5.832031 8.332031 L 5.832031 2.5 C 5.832031 2.042969 6.207031 1.667969 6.667969 1.667969 L 13.332031 1.667969 C 13.792969 1.667969 14.167969 2.042969 14.167969 2.5 Z M 14.167969 2.5 "/>
</g>
</svg>
