<?xml version="1.0" encoding="iso-8859-1"?>
<!-- Uploaded to: SVG Repo, www.svgrepo.com, Generator: SVG Repo Mixer Tools -->
<!DOCTYPE svg PUBLIC "-//W3C//DTD SVG 1.1//EN" "http://www.w3.org/Graphics/SVG/1.1/DTD/svg11.dtd">
<svg fill="#000000" height="800px" width="800px" version="1.1" id="Capa_1" xmlns="http://www.w3.org/2000/svg" xmlns:xlink="http://www.w3.org/1999/xlink" 
	 viewBox="0 0 465 465" xml:space="preserve">
<g>
	<path d="M396.902,68.098C352.988,24.184,294.603,0,232.5,0S112.012,24.184,68.098,68.098C24.185,112.011,0,170.397,0,232.5
		s24.185,120.489,68.098,164.402C112.012,440.816,170.397,465,232.5,465s120.488-24.184,164.402-68.098
		C440.815,352.989,465,294.603,465,232.5S440.815,112.011,396.902,68.098z M450,232.5c0,27.503-5.144,53.825-14.5,78.069V154.431
		C444.856,178.675,450,204.997,450,232.5z M431.223,144.138L320.862,33.777C369.867,55.652,409.348,95.133,431.223,144.138z
		 M310.569,29.5H154.431C178.676,20.145,204.997,15,232.5,15S286.324,20.145,310.569,29.5z M144.138,33.777L33.777,144.138
		C55.652,95.133,95.133,55.652,144.138,33.777z M29.5,154.431v92.303c0,4.142,3.357,7.5,7.5,7.5s7.5-3.358,7.5-7.5v-92.106
		L154.628,44.5h155.744L420.5,154.628v155.744L310.372,420.5H154.628L44.5,310.372v-33.638c0-4.142-3.357-7.5-7.5-7.5
		s-7.5,3.358-7.5,7.5v33.835C20.144,286.325,15,260.003,15,232.5S20.144,178.675,29.5,154.431z M33.777,320.862l110.361,110.361
		C95.133,409.348,55.652,369.867,33.777,320.862z M154.431,435.5h156.138c-24.245,9.355-50.566,14.5-78.069,14.5
		S178.676,444.855,154.431,435.5z M320.862,431.223l110.361-110.361C409.348,369.867,369.867,409.348,320.862,431.223z"/>
	<path d="M329.681,347.804c-27.122,22.885-61.636,35.488-97.181,35.488s-70.058-12.603-97.181-35.486
		c-3.165-2.67-7.896-2.269-10.568,0.896c-2.671,3.166-2.27,7.898,0.896,10.569c29.824,25.164,67.772,39.021,106.853,39.021
		c39.081,0,77.029-13.859,106.854-39.023c3.165-2.671,3.566-7.403,0.896-10.569C337.58,345.534,332.849,345.133,329.681,347.804z"/>
	<path d="M77.327,261.872c3.124,32.637,28.518,59.6,61.506,64.063c4.113,0.558,7.883-2.322,8.438-6.427
		c0.555-4.104-2.322-7.882-6.427-8.438c-25.337-3.428-44.998-23.664-48.337-48.487h46.195c4.143,0,7.5-3.358,7.5-7.5
		s-3.357-7.5-7.5-7.5H92.506c2.992-22.351,19.168-41.154,41.386-47.083c2.742-0.732,4.836-2.948,5.411-5.727
		c9.094-43.954,48.288-75.856,93.196-75.856c44.907,0,84.103,31.902,93.197,75.856c0.575,2.779,2.669,4.995,5.411,5.727
		c22.218,5.93,38.393,24.732,41.386,47.083h-46.195c-4.143,0-7.5,3.358-7.5,7.5s3.357,7.5,7.5,7.5h46.194
		c-3.34,24.823-23.001,45.059-48.337,48.486c-4.104,0.555-6.981,4.333-6.427,8.438c0.51,3.764,3.728,6.496,7.423,6.496
		c0.335,0,0.674-0.022,1.016-0.069c32.988-4.462,58.381-31.425,61.505-64.062c2.554-1.196,4.328-3.782,4.328-6.789
		c0-3.01-1.777-5.599-4.336-6.792c-2.664-27.947-21.578-51.953-48.282-60.955c-12.166-48.6-56.407-83.419-106.882-83.419
		s-94.716,34.819-106.881,83.419C98.914,196.338,80,220.344,77.336,248.29c-2.559,1.194-4.336,3.783-4.336,6.793
		C73,258.09,74.773,260.676,77.327,261.872z"/>
	<path d="M173.446,237.254c-9.471,11.673-15.246,25.989-16.62,40.909c-2.706,1.132-4.608,3.804-4.608,6.92
		c0,3.118,1.903,5.79,4.61,6.921c3.51,38.673,36.099,69.079,75.671,69.079s72.161-30.405,75.671-69.079
		c2.708-1.131,4.61-3.804,4.61-6.921c0-3.117-1.902-5.788-4.608-6.92c-1.374-14.92-7.149-29.236-16.62-40.909
		c-5.499-6.777-12.124-12.522-19.497-17.025c4.13-5.252,9.166-9.783,14.87-13.294c5.188-3.193,10.819-5.508,16.735-6.882
		c2.027-0.471,3.768-1.762,4.805-3.566c1.038-1.804,1.279-3.958,0.667-5.946c-7.97-25.894-28.421-45.886-54.134-53.402v-1.389
		c0-4.142-3.357-7.5-7.5-7.5s-7.5,3.358-7.5,7.5v7.178c0,0.007,0,0.015,0,0.022v75.301c0,3.512,2.437,6.553,5.864,7.319
		c25.135,5.618,43.988,26.877,47.158,52.013h-63.66c-2.962-7.198-10.042-12.282-18.296-12.282c-8.253,0-15.333,5.084-18.295,12.282
		h-20.794c3.17-25.136,22.023-46.395,47.158-52.013c3.428-0.766,5.864-3.808,5.864-7.319V142.95c0-0.008,0-0.015,0-0.022v-7.178
		c0-4.142-3.357-7.5-7.5-7.5s-7.5,3.358-7.5,7.5v1.389c-25.713,7.516-46.164,27.508-54.133,53.402
		c-0.612,1.989-0.371,4.142,0.667,5.946c1.037,1.804,2.777,3.095,4.805,3.566c5.917,1.374,11.548,3.69,16.735,6.883
		c5.704,3.51,10.74,8.041,14.869,13.292C185.571,224.731,178.945,230.477,173.446,237.254z M292.149,187.844
		c-4.553,1.648-8.931,3.76-13.084,6.316c-8.153,5.018-15.251,11.667-20.804,19.441c-1.079-0.39-2.165-0.765-3.262-1.105v-59.576
		C271.561,159.014,285.008,171.623,292.149,187.844z M232.5,346.083c-31.095,0-56.812-23.393-60.522-53.5h20.794
		c2.962,7.197,10.042,12.281,18.295,12.281c8.253,0,15.334-5.084,18.296-12.281h63.66
		C289.312,322.691,263.595,346.083,232.5,346.083z M211.066,280.302c2.635,0,4.778,2.142,4.781,4.775c0,0.002,0,0.004,0,0.006
		s0,0.004,0,0.006c-0.003,2.633-2.147,4.775-4.781,4.775c-2.637,0-4.781-2.145-4.781-4.781
		C206.285,282.447,208.43,280.302,211.066,280.302z M185.938,194.162c-4.154-2.557-8.532-4.669-13.086-6.317
		c7.14-16.221,20.587-28.83,37.148-34.925v59.576c-1.097,0.341-2.182,0.715-3.261,1.105
		C201.186,205.827,194.089,199.179,185.938,194.162z"/>
	<path d="M226.65,73.917V87.5c0,4.142,3.357,7.5,7.5,7.5s7.5-3.358,7.5-7.5v-22c0-2.766-1.522-5.307-3.961-6.612
		c-2.438-1.305-5.397-1.163-7.699,0.372l-3.301,2.2c-3.446,2.297-4.378,6.954-2.08,10.4
		C225.167,72.698,225.864,73.387,226.65,73.917z"/>
</g>
</svg>