<?xml version="1.0" encoding="iso-8859-1"?>
<!-- Uploaded to: SVG Repo, www.svgrepo.com, Generator: SVG Repo Mixer Tools -->
<!DOCTYPE svg PUBLIC "-//W3C//DTD SVG 1.1//EN" "http://www.w3.org/Graphics/SVG/1.1/DTD/svg11.dtd">
<svg fill="#000000" version="1.1" id="Capa_1" xmlns="http://www.w3.org/2000/svg" xmlns:xlink="http://www.w3.org/1999/xlink" 
	 viewBox="0 0 220 220" xml:space="preserve">
<g>
	<path d="M110,0C49.346,0,0,49.346,0,110s49.346,110,110,110s110-49.346,110-110S170.654,0,110,0z M110,210
		c-55.141,0-100-44.86-100-100S54.859,10,110,10s100,44.86,100,100S165.141,210,110,210z"/>
	<path d="M110,19.5c-49.902,0-90.5,40.598-90.5,90.5s40.598,90.5,90.5,90.5s90.5-40.598,90.5-90.5S159.902,19.5,110,19.5z
		 M110,197.5c-48.248,0-87.5-39.252-87.5-87.5S61.752,22.5,110,22.5s87.5,39.252,87.5,87.5S158.248,197.5,110,197.5z"/>
	<path d="M101,144.891C88.588,139.81,79.669,126.092,79.669,110S88.588,80.19,101,75.109V62.454
		C81.88,67.764,67.669,87.063,67.669,110S81.88,152.236,101,157.546V144.891z"/>
	<path d="M138.703,129.555c-4.458,8.233-11.571,14.163-19.703,16.426v12.311c14.49-2.767,26.986-13.537,32.92-28.737H138.703z"/>
	<path d="M119,61.715v12.277c8.189,2.226,15.261,8.114,19.725,16.453h13.198C145.995,75.283,133.442,64.497,119,61.715z"/>
	<rect x="104" y="54" width="12" height="112"/>
</g>
</svg>