<?xml version="1.0" encoding="UTF-8"?>
<svg xmlns="http://www.w3.org/2000/svg" xmlns:xlink="http://www.w3.org/1999/xlink" width="24px" height="24px" viewBox="0 0 24 24" version="1.1">
<g id="surface1">
<path style=" stroke:none;fill-rule:nonzero;fill:rgb(0%,0%,0%);fill-opacity:1;" d="M 23.84375 0.863281 C 23.707031 0.738281 23.507812 0.699219 23.335938 0.765625 L 0.316406 9.582031 C 0.148438 9.648438 0.03125 9.796875 0.00390625 9.972656 C -0.0195312 10.148438 0.0507812 10.320312 0.191406 10.429688 L 7.324219 15.902344 C 7.324219 15.90625 7.296875 15.914062 7.296875 15.917969 L 7.296875 19.835938 C 7.296875 20.015625 7.421875 20.183594 7.582031 20.269531 C 7.652344 20.308594 7.746094 20.328125 7.824219 20.328125 C 7.917969 20.328125 8.019531 20.300781 8.101562 20.246094 L 10.734375 18.492188 L 16.84375 23.164062 C 16.929688 23.230469 17.035156 23.265625 17.140625 23.265625 C 17.191406 23.265625 17.246094 23.257812 17.292969 23.242188 C 17.449219 23.191406 17.566406 23.070312 17.613281 22.914062 L 23.980469 1.363281 C 24.03125 1.183594 23.980469 0.992188 23.84375 0.863281 Z M 7.992188 15.070312 C 7.972656 15.085938 7.960938 15.105469 7.945312 15.125 L 1.484375 10.183594 L 21.398438 2.558594 Z M 8.277344 18.921875 L 8.277344 16.648438 L 9.863281 17.863281 Z M 16.875 21.953125 L 11.171875 17.59375 C 11.113281 17.511719 11.035156 17.453125 10.945312 17.417969 L 8.726562 15.722656 L 22.519531 2.851562 Z M 16.875 21.953125 "/>
</g>
</svg>
