<?xml version="1.0" encoding="UTF-8"?>
<svg xmlns="http://www.w3.org/2000/svg" xmlns:xlink="http://www.w3.org/1999/xlink" width="30px" height="30px" viewBox="0 0 30 30" version="1.1">
<g id="surface1">
<path style=" stroke:none;fill-rule:nonzero;fill:rgb(0%,0%,0%);fill-opacity:1;" d="M 14.90625 9.078125 C 16.296875 9.078125 17.128906 9.816406 17.128906 11.066406 C 17.128906 13.335938 13.082031 13.960938 13.082031 16.710938 C 13.082031 17.453125 13.566406 18.261719 14.558594 18.261719 C 16.085938 18.261719 15.902344 17.128906 16.457031 16.316406 C 17.199219 15.230469 20.644531 14.074219 20.644531 11.066406 C 20.644531 7.804688 17.730469 6.4375 14.769531 6.4375 C 11.949219 6.4375 9.355469 8.453125 9.355469 10.71875 C 9.355469 11.644531 10.050781 12.128906 10.859375 12.128906 C 13.101562 12.132812 11.945312 9.078125 14.90625 9.078125 Z M 14.90625 9.078125 "/>
<path style=" stroke:none;fill-rule:nonzero;fill:rgb(0%,0%,0%);fill-opacity:1;" d="M 16.550781 21.664062 C 16.550781 20.621094 15.695312 19.765625 14.652344 19.765625 C 13.613281 19.765625 12.757812 20.621094 12.757812 21.664062 C 12.757812 22.703125 13.613281 23.558594 14.652344 23.558594 C 15.695312 23.558594 16.550781 22.703125 16.550781 21.664062 Z M 16.550781 21.664062 "/>
<path style=" stroke:none;fill-rule:nonzero;fill:rgb(0%,0%,0%);fill-opacity:1;" d="M 30 15 C 30 6.730469 23.269531 0 15 0 C 6.730469 0 0 6.730469 0 15 C 0 23.269531 6.730469 30 15 30 C 23.269531 30 30 23.273438 30 15 Z M 1.496094 15 C 1.496094 7.554688 7.554688 1.496094 15 1.496094 C 22.445312 1.496094 28.503906 7.554688 28.503906 15 C 28.503906 22.445312 22.445312 28.503906 15 28.503906 C 7.554688 28.503906 1.496094 22.445312 1.496094 15 Z M 1.496094 15 "/>
</g>
</svg>
