<?xml version="1.0" encoding="UTF-8"?>
<svg xmlns="http://www.w3.org/2000/svg" xmlns:xlink="http://www.w3.org/1999/xlink" width="24px" height="24px" viewBox="0 0 24 24" version="1.1">
<g id="surface1">
<path style=" stroke:none;fill-rule:evenodd;fill:rgb(28.627451%,29.803922%,30.588235%);fill-opacity:1;" d="M 13 0 L 3 0 C 1.34375 0.00390625 0.00390625 1.34375 0 3 L 0 16.988281 C 0.00390625 18.644531 1.34375 19.984375 3 19.988281 L 13 19.988281 C 14.65625 19.984375 15.996094 18.644531 16 16.988281 L 16 3 C 15.996094 1.34375 14.65625 0.00390625 13 0 Z M 14 16.988281 C 13.992188 17.539062 13.546875 17.980469 13 17.988281 L 3 17.988281 C 2.453125 17.980469 2.007812 17.539062 2 16.988281 L 2 3 C 2.007812 2.453125 2.453125 2.007812 3 2 L 13 2 C 13.550781 2.007812 13.992188 2.449219 14 3 Z M 14 16.988281 "/>
<path style=" stroke:none;fill-rule:evenodd;fill:rgb(28.627451%,29.803922%,30.588235%);fill-opacity:1;" d="M 20 7 L 20 21 C 19.996094 22.65625 18.65625 23.996094 17 24 L 5 24 C 4.449219 24 4 23.550781 4 23 C 4 22.449219 4.449219 22 5 22 L 17 22 C 17.546875 21.992188 17.992188 21.546875 18 21 L 18 7 C 18 6.449219 18.449219 6 19 6 C 19.550781 6 20 6.449219 20 7 Z M 20 7 "/>
<path style=" stroke:none;fill-rule:evenodd;fill:rgb(28.627451%,29.803922%,30.588235%);fill-opacity:1;" d="M 9 15 C 9 15.550781 8.550781 16 8 16 C 7.449219 16 7 15.550781 7 15 C 7 14.449219 7.449219 14 8 14 C 8.550781 14 9 14.449219 9 15 Z M 9 15 "/>
<path style=" stroke:none;fill-rule:evenodd;fill:rgb(28.627451%,29.803922%,30.588235%);fill-opacity:1;" d="M 12 8 C 12 9.824219 10.765625 11.417969 9 11.871094 L 9 12 C 9 12.550781 8.550781 13 8 13 C 7.449219 13 7 12.550781 7 12 L 7 11 C 7 10.449219 7.449219 10 8 10 C 9.105469 10 10 9.105469 10 8 C 10 6.894531 9.105469 6 8 6 C 6.894531 6 6 6.894531 6 8 C 6 8.550781 5.550781 9 5 9 C 4.449219 9 4 8.550781 4 8 C 4 5.789062 5.789062 4 8 4 C 10.210938 4 12 5.789062 12 8 Z M 12 8 "/>
</g>
</svg>
