<?xml version="1.0" encoding="iso-8859-1"?>
<!-- Uploaded to: SVG Repo, www.svgrepo.com, Generator: SVG Repo Mixer Tools -->
<!DOCTYPE svg PUBLIC "-//W3C//DTD SVG 1.1//EN" "http://www.w3.org/Graphics/SVG/1.1/DTD/svg11.dtd">
<svg fill="#000000" version="1.1" id="Capa_1" xmlns="http://www.w3.org/2000/svg" xmlns:xlink="http://www.w3.org/1999/xlink" 
	 width="800px" height="800px" viewBox="0 0 472.721 472.722"
	 xml:space="preserve">
<g>
	<path d="M390.768,164.538c-2.654-5.08-7.902-8.254-13.619-8.254c-0.012,0-0.03,0-0.042,0L293.37,156.5V15.364
		c0-6.773-4.443-12.751-10.935-14.712c-6.479-1.946-13.486,0.564-17.245,6.209L82.77,281.518
		c-3.141,4.731-3.417,10.809-0.718,15.805c2.693,4.972,7.881,8.07,13.526,8.07c0.033,0,0.069,0,0.099,0l66.986-0.414l-0.468,152.323
		c-0.024,6.72,4.323,12.676,10.736,14.706c1.525,0.48,3.086,0.714,4.636,0.714c4.927,0,9.667-2.378,12.601-6.569l199.584-285.69
		C393.032,175.752,393.421,169.615,390.768,164.538z M256.476,202.911c0,8.494-6.881,15.373-15.372,15.373
		c-8.491,0-15.372-6.878-15.372-15.373v-56.367c0-8.491,6.881-15.373,15.372-15.373c8.491,0,15.372,6.882,15.372,15.373V202.911z"/>
</g>
</svg>