<?xml version="1.0" encoding="UTF-8"?>
<svg xmlns="http://www.w3.org/2000/svg" xmlns:xlink="http://www.w3.org/1999/xlink" width="30px" height="30px" viewBox="0 0 30 30" version="1.1">
<g id="surface1">
<path style=" stroke:none;fill-rule:nonzero;fill:rgb(0%,0%,0%);fill-opacity:1;" d="M 21.546875 13.085938 C 16.882812 13.085938 13.089844 16.875 13.089844 21.542969 C 13.089844 26.207031 16.882812 29.996094 21.546875 29.996094 C 26.210938 29.996094 30 26.203125 30 21.542969 C 30.011719 16.882812 26.210938 13.085938 21.546875 13.085938 Z M 21.546875 28.335938 C 17.800781 28.335938 14.753906 25.296875 14.753906 21.546875 C 14.753906 17.800781 17.796875 14.757812 21.546875 14.757812 C 25.292969 14.757812 28.335938 17.800781 28.335938 21.546875 C 28.339844 25.289062 25.292969 28.335938 21.546875 28.335938 Z M 21.546875 28.335938 "/>
<path style=" stroke:none;fill-rule:nonzero;fill:rgb(0%,0%,0%);fill-opacity:1;" d="M 8.460938 0.00390625 C 3.792969 0.00390625 0 3.796875 0 8.457031 C 0 13.117188 3.792969 16.914062 8.460938 16.914062 C 13.125 16.914062 16.914062 13.117188 16.914062 8.457031 C 16.914062 3.792969 13.121094 0.00390625 8.460938 0.00390625 Z M 8.460938 15.242188 C 4.710938 15.242188 1.664062 12.195312 1.664062 8.457031 C 1.664062 4.710938 4.710938 1.664062 8.460938 1.664062 C 12.203125 1.664062 15.25 4.703125 15.25 8.453125 C 15.25 12.199219 12.207031 15.242188 8.460938 15.242188 Z M 8.460938 15.242188 "/>
<path style=" stroke:none;fill-rule:nonzero;fill:rgb(0%,0%,0%);fill-opacity:1;" d="M 8.453125 7.621094 C 7.914062 7.621094 7.476562 7.183594 7.476562 6.644531 C 7.476562 6.101562 7.914062 5.664062 8.453125 5.664062 C 8.996094 5.664062 9.433594 6.101562 9.433594 6.644531 C 9.433594 7.105469 9.8125 7.472656 10.265625 7.472656 C 10.71875 7.472656 11.09375 7.097656 11.09375 6.644531 C 11.09375 5.476562 10.335938 4.488281 9.285156 4.136719 L 9.285156 3.78125 C 9.285156 3.316406 8.910156 2.953125 8.453125 2.953125 C 8 2.953125 7.625 3.328125 7.625 3.78125 L 7.625 4.136719 C 6.574219 4.488281 5.816406 5.484375 5.816406 6.644531 C 5.816406 8.101562 7.007812 9.289062 8.460938 9.289062 C 9 9.289062 9.441406 9.726562 9.441406 10.265625 C 9.441406 10.804688 8.996094 11.246094 8.460938 11.246094 C 7.917969 11.246094 7.480469 10.808594 7.480469 10.265625 C 7.480469 9.804688 7.105469 9.4375 6.652344 9.4375 C 6.1875 9.4375 5.820312 9.8125 5.820312 10.265625 C 5.820312 11.433594 6.582031 12.421875 7.628906 12.773438 L 7.628906 13.128906 C 7.628906 13.59375 8.007812 13.957031 8.460938 13.957031 C 8.914062 13.957031 9.289062 13.582031 9.289062 13.128906 L 9.289062 12.773438 C 10.34375 12.421875 11.101562 11.425781 11.101562 10.265625 C 11.101562 8.808594 9.910156 7.621094 8.453125 7.621094 Z M 8.453125 7.621094 "/>
<path style=" stroke:none;fill-rule:nonzero;fill:rgb(0%,0%,0%);fill-opacity:1;" d="M 25.601562 23.320312 C 25.210938 23.089844 24.695312 23.222656 24.464844 23.625 C 23.933594 24.539062 23.082031 25.078125 22.1875 25.078125 C 21.375 25.078125 20.644531 24.640625 20.132812 23.945312 L 21.542969 23.945312 C 22.007812 23.945312 22.375 23.570312 22.375 23.113281 C 22.375 22.660156 22 22.285156 21.542969 22.285156 L 19.4375 22.285156 C 19.394531 22.042969 19.277344 21.382812 19.4375 20.804688 L 21.542969 20.804688 C 22.007812 20.804688 22.375 20.429688 22.375 19.976562 C 22.375 19.519531 22 19.144531 21.542969 19.144531 L 20.132812 19.144531 C 20.652344 18.445312 21.386719 18 22.199219 18 C 23.085938 18 23.9375 18.542969 24.472656 19.453125 C 24.707031 19.847656 25.222656 19.984375 25.613281 19.75 C 26.003906 19.515625 26.144531 19 25.90625 18.609375 C 25.066406 17.1875 23.679688 16.335938 22.195312 16.335938 C 20.46875 16.335938 18.972656 17.472656 18.21875 19.140625 L 16.9375 19.140625 C 16.472656 19.140625 16.105469 19.515625 16.105469 19.96875 C 16.105469 20.421875 16.480469 20.800781 16.9375 20.800781 L 17.753906 20.800781 C 17.621094 21.535156 17.726562 22.039062 17.753906 22.28125 L 16.9375 22.28125 C 16.472656 22.28125 16.105469 22.65625 16.105469 23.109375 C 16.105469 23.5625 16.480469 23.941406 16.9375 23.941406 L 18.21875 23.941406 C 18.972656 25.605469 20.46875 26.746094 22.195312 26.746094 C 23.683594 26.746094 25.070312 25.886719 25.90625 24.460938 C 26.136719 24.058594 26.003906 23.554688 25.601562 23.320312 Z M 25.601562 23.320312 "/>
<path style=" stroke:none;fill-rule:nonzero;fill:rgb(0%,0%,0%);fill-opacity:1;" d="M 12.203125 24.855469 L 9.917969 22.574219 C 9.59375 22.25 9.070312 22.25 8.742188 22.574219 C 8.417969 22.898438 8.417969 23.425781 8.742188 23.75 L 9.527344 24.53125 C 6.234375 24.070312 3.6875 21.242188 3.6875 17.820312 C 3.6875 17.355469 3.308594 16.988281 2.855469 16.988281 C 2.402344 16.988281 2.027344 17.367188 2.027344 17.820312 C 2.027344 22.203125 5.378906 25.8125 9.652344 26.234375 L 8.75 27.136719 C 8.425781 27.460938 8.425781 27.988281 8.75 28.3125 C 9.097656 28.660156 9.699219 28.574219 9.925781 28.3125 L 12.203125 26.03125 C 12.527344 25.707031 12.527344 25.183594 12.203125 24.855469 Z M 12.203125 24.855469 "/>
<path style=" stroke:none;fill-rule:nonzero;fill:rgb(0%,0%,0%);fill-opacity:1;" d="M 20.355469 3.765625 L 21.257812 2.863281 C 21.582031 2.539062 21.582031 2.011719 21.257812 1.6875 C 20.929688 1.363281 20.402344 1.363281 20.082031 1.6875 L 17.808594 3.96875 C 17.480469 4.292969 17.480469 4.816406 17.808594 5.144531 L 20.085938 7.425781 C 20.390625 7.730469 20.988281 7.710938 21.261719 7.425781 C 21.585938 7.101562 21.585938 6.574219 21.261719 6.25 L 20.476562 5.46875 C 23.773438 5.929688 26.320312 8.757812 26.320312 12.179688 C 26.320312 12.644531 26.695312 13.011719 27.148438 13.011719 C 27.601562 13.011719 27.980469 12.632812 27.980469 12.179688 C 27.980469 7.796875 24.628906 4.1875 20.355469 3.765625 Z M 20.355469 3.765625 "/>
</g>
</svg>
