<?xml version="1.0" encoding="UTF-8"?>
<svg xmlns="http://www.w3.org/2000/svg" xmlns:xlink="http://www.w3.org/1999/xlink" width="30px" height="30px" viewBox="0 0 30 30" version="1.1">
<g id="surface1">
<path style=" stroke:none;fill-rule:nonzero;fill:rgb(0%,0%,0%);fill-opacity:1;" d="M 23.765625 12.6875 C 23.605469 12.847656 23.542969 13.082031 23.585938 13.304688 C 23.695312 13.851562 23.75 14.417969 23.75 15 C 23.75 19.832031 19.832031 23.75 15 23.75 C 12.441406 23.75 10.140625 22.652344 8.539062 20.902344 C 8.289062 20.628906 7.855469 20.597656 7.589844 20.863281 C 7.367188 21.085938 7.347656 21.445312 7.558594 21.679688 C 9.386719 23.71875 12.042969 25 15 25 C 20.523438 25 25 20.523438 25 15 C 25 14.304688 24.929688 13.621094 24.792969 12.964844 C 24.695312 12.488281 24.109375 12.34375 23.765625 12.6875 Z M 23.765625 12.6875 "/>
<path style=" stroke:none;fill-rule:nonzero;fill:rgb(0%,0%,0%);fill-opacity:1;" d="M 22.234375 8.953125 C 22.464844 8.722656 22.480469 8.355469 22.257812 8.121094 C 20.4375 6.199219 17.859375 5 15 5 C 9.476562 5 5 9.476562 5 15 C 5 15.75 5.082031 16.484375 5.238281 17.1875 C 5.34375 17.660156 5.921875 17.796875 6.265625 17.457031 C 6.425781 17.292969 6.488281 17.058594 6.441406 16.832031 C 6.316406 16.242188 6.25 15.628906 6.25 15 C 6.25 10.167969 10.167969 6.25 15 6.25 C 17.472656 6.25 19.707031 7.277344 21.296875 8.925781 C 21.550781 9.1875 21.976562 9.210938 22.234375 8.953125 Z M 22.234375 8.953125 "/>
<path style=" stroke:none;fill-rule:evenodd;fill:rgb(0%,0%,0%);fill-opacity:1;" d="M 22.65625 6.25 C 23 6.25 23.28125 6.53125 23.28125 6.875 L 23.28125 9.375 C 23.28125 9.71875 23 10 22.65625 10 L 20.15625 10 C 19.8125 10 19.53125 9.71875 19.53125 9.375 C 19.53125 9.03125 19.8125 8.75 20.15625 8.75 L 22.03125 8.75 L 22.03125 6.875 C 22.03125 6.53125 22.3125 6.25 22.65625 6.25 Z M 22.65625 6.25 "/>
<path style=" stroke:none;fill-rule:evenodd;fill:rgb(0%,0%,0%);fill-opacity:1;" d="M 6.902344 20.183594 C 7.019531 20.066406 7.179688 20 7.34375 20 L 9.84375 20 C 10.1875 20 10.46875 20.28125 10.46875 20.625 C 10.46875 20.96875 10.1875 21.25 9.84375 21.25 L 7.96875 21.25 L 7.96875 23.125 C 7.96875 23.46875 7.6875 23.75 7.34375 23.75 C 7 23.75 6.71875 23.46875 6.71875 23.125 L 6.71875 20.625 C 6.71875 20.460938 6.785156 20.300781 6.902344 20.183594 Z M 6.902344 20.183594 "/>
<path style=" stroke:none;fill-rule:nonzero;fill:rgb(0%,0%,0%);fill-opacity:1;" d="M 15.28125 15.417969 L 15.28125 17.84375 C 16.105469 17.75 16.703125 17.273438 16.703125 16.585938 C 16.703125 15.890625 16.046875 15.628906 15.308594 15.425781 Z M 15.28125 15.417969 "/>
<path style=" stroke:none;fill-rule:nonzero;fill:rgb(0%,0%,0%);fill-opacity:1;" d="M 13.488281 13.320312 C 13.488281 14.011719 14.199219 14.300781 14.71875 14.445312 L 14.71875 12.175781 C 13.96875 12.277344 13.488281 12.726562 13.488281 13.320312 Z M 13.488281 13.320312 "/>
<path style=" stroke:none;fill-rule:evenodd;fill:rgb(0%,0%,0%);fill-opacity:1;" d="M 15 21.25 C 18.453125 21.25 21.25 18.453125 21.25 15 C 21.25 11.546875 18.453125 8.75 15 8.75 C 11.546875 8.75 8.75 11.546875 8.75 15 C 8.75 18.453125 11.546875 21.25 15 21.25 Z M 15.28125 19.375 L 14.71875 19.375 L 14.71875 18.613281 C 13.375 18.523438 12.554688 17.773438 12.476562 16.695312 L 13.351562 16.695312 C 13.414062 17.398438 14.003906 17.769531 14.71875 17.84375 L 14.71875 15.257812 L 14.445312 15.179688 C 13.351562 14.863281 12.667969 14.304688 12.667969 13.359375 C 12.667969 12.285156 13.546875 11.542969 14.71875 11.421875 L 14.71875 10.625 L 15.28125 10.625 L 15.28125 11.410156 C 16.519531 11.492188 17.394531 12.253906 17.425781 13.25 L 16.605469 13.25 C 16.53125 12.628906 16.003906 12.238281 15.28125 12.167969 L 15.28125 14.597656 L 15.554688 14.671875 C 16.277344 14.863281 17.523438 15.289062 17.523438 16.601562 C 17.523438 17.664062 16.714844 18.515625 15.28125 18.613281 Z M 15.28125 19.375 "/>
</g>
</svg>
