<?xml version="1.0" encoding="utf-8"?>
<!-- Generator: Adobe Illustrator 24.2.0, SVG Export Plug-In . SVG Version: 6.00 Build 0)  -->
<svg version="1.1" id="Слой_1" xmlns="http://www.w3.org/2000/svg" xmlns:xlink="http://www.w3.org/1999/xlink" x="0px" y="0px"
	 viewBox="0 0 441.8 384" style="enable-background:new 0 0 441.8 384;" xml:space="preserve">
<style type="text/css">
	.st0{fill:#003470;}
</style>
<path class="st0" d="M141.3,237h280.6c2.7,0,5.1-1.5,6.4-3.8l13-23.6c1.3-2.4-0.4-5.5-3.2-5.5H103.7c-24.6-0.1-38.2,4.9-43.1,16
	C43.9,257.5,111.8,384,235,384c47,0,91-15,125.9-49.3c1.9-1.9,0.6-5-2.1-5H183.9c-26.4-0.1-31.8-30.7-13.3-30.7h212.6
	c2.4,0,4.7-1.2,6-3.1c3.7-5.4,11.4-16.5,16.1-23.3c1.7-2.4-0.1-5.8-3-5.8H152.8C128.6,266.7,124.4,237,141.3,237z M46.7,135.5
	c48.3-102.9,238-140.7,288.9,37.9c0.6,2.2,2.6,3.7,4.9,3.7h65.3c3.2,0,5.6-2.9,5.1-6.1C395.1,82,312.4-2.2,208,0
	C-9.3,4.7-74,273.7,99.1,381.5c1.7,1.1,3.7,1.6,5.8,1.6h30.4c3.2,0,4.1-4.4,1.1-5.6C45.8,338.9-2.6,240.5,46.7,135.5z"/>
</svg>
