<?xml version="1.0" encoding="UTF-8"?>
<svg xmlns="http://www.w3.org/2000/svg" xmlns:xlink="http://www.w3.org/1999/xlink" width="20px" height="20px" viewBox="0 0 20 20" version="1.1">
<g id="surface1">
<path style=" stroke:none;fill-rule:nonzero;fill:rgb(49.803922%,46.666667%,45.490196%);fill-opacity:1;" d="M 9.675781 2.378906 L 10.324219 2.378906 L 10.324219 5.621094 L 9.675781 5.621094 Z M 9.675781 2.378906 "/>
<path style=" stroke:none;fill-rule:nonzero;fill:rgb(49.803922%,46.666667%,45.490196%);fill-opacity:1;" d="M 6.648438 2.378906 L 7.296875 2.378906 L 7.296875 5.621094 L 6.648438 5.621094 Z M 6.648438 2.378906 "/>
<path style=" stroke:none;fill-rule:nonzero;fill:rgb(33.333333%,30.980392%,30.588235%);fill-opacity:1;" d="M 12.703125 2.378906 L 13.351562 2.378906 L 13.351562 5.621094 L 12.703125 5.621094 Z M 12.703125 2.378906 "/>
<path style=" stroke:none;fill-rule:nonzero;fill:rgb(21.960784%,56.862745%,91.372549%);fill-opacity:1;" d="M 10.863281 1.945312 L 10.863281 0.863281 C 10.863281 0.386719 10.476562 0 10 0 C 9.523438 0 9.136719 0.386719 9.136719 0.863281 L 9.136719 1.945312 C 9.136719 2.421875 9.523438 2.8125 10 2.8125 C 10.476562 2.8125 10.863281 2.421875 10.863281 1.945312 Z M 10.863281 1.945312 "/>
<path style=" stroke:none;fill-rule:nonzero;fill:rgb(40.784314%,68.235294%,95.686275%);fill-opacity:1;" d="M 7.835938 1.945312 L 7.835938 0.863281 C 7.835938 0.386719 7.449219 0 6.972656 0 C 6.496094 0 6.109375 0.386719 6.109375 0.863281 L 6.109375 1.945312 C 6.109375 2.421875 6.496094 2.8125 6.972656 2.8125 C 7.449219 2.8125 7.835938 2.421875 7.835938 1.945312 Z M 7.835938 1.945312 "/>
<path style=" stroke:none;fill-rule:nonzero;fill:rgb(40.784314%,68.235294%,95.686275%);fill-opacity:1;" d="M 13.890625 1.945312 L 13.890625 0.863281 C 13.890625 0.386719 13.503906 0 13.027344 0 C 12.550781 0 12.164062 0.386719 12.164062 0.863281 L 12.164062 1.945312 C 12.164062 2.421875 12.550781 2.8125 13.027344 2.8125 C 13.503906 2.8125 13.890625 2.421875 13.890625 1.945312 Z M 13.890625 1.945312 "/>
<path style=" stroke:none;fill-rule:nonzero;fill:rgb(75.294118%,52.156863%,46.666667%);fill-opacity:1;" d="M 13.460938 17.082031 L 13.460938 18.8125 L 5.242188 18.8125 L 5.242188 8.648438 L 13.460938 8.648438 L 13.460938 10.378906 L 11.296875 13.730469 Z M 13.460938 17.082031 "/>
<path style=" stroke:none;fill-rule:nonzero;fill:rgb(67.058824%,36.470588%,29.019608%);fill-opacity:1;" d="M 12.164062 8.648438 L 14.757812 8.648438 L 14.757812 18.8125 L 12.164062 18.8125 Z M 12.164062 8.648438 "/>
<path style=" stroke:none;fill-rule:nonzero;fill:rgb(83.529412%,68.235294%,64.313725%);fill-opacity:1;" d="M 13.890625 18.378906 L 13.027344 19.027344 L 13.890625 19.675781 L 15.1875 19.675781 L 15.1875 18.378906 Z M 13.890625 18.378906 "/>
<path style=" stroke:none;fill-rule:nonzero;fill:rgb(83.529412%,68.235294%,64.313725%);fill-opacity:1;" d="M 13.460938 10.378906 L 13.460938 17.082031 L 12.164062 17.082031 L 11.296875 13.730469 L 12.164062 10.378906 Z M 13.460938 10.378906 "/>
<path style=" stroke:none;fill-rule:nonzero;fill:rgb(91.764706%,83.921569%,82.352941%);fill-opacity:1;" d="M 6.539062 10.378906 L 12.164062 10.378906 L 12.164062 17.082031 L 6.539062 17.082031 Z M 6.539062 10.378906 "/>
<path style=" stroke:none;fill-rule:nonzero;fill:rgb(83.529412%,68.235294%,64.313725%);fill-opacity:1;" d="M 11.296875 5.621094 L 13.890625 9.082031 L 15.1875 9.082031 L 15.1875 5.621094 Z M 11.296875 5.621094 "/>
<path style=" stroke:none;fill-rule:nonzero;fill:rgb(91.764706%,83.921569%,82.352941%);fill-opacity:1;" d="M 4.8125 5.621094 L 13.890625 5.621094 L 13.890625 9.082031 L 4.8125 9.082031 Z M 4.8125 5.621094 "/>
<path style=" stroke:none;fill-rule:nonzero;fill:rgb(67.058824%,36.470588%,29.019608%);fill-opacity:1;" d="M 16.488281 5.1875 L 16.488281 6.488281 L 15.1875 6.488281 L 14.757812 5.835938 L 15.1875 5.1875 Z M 16.488281 5.1875 "/>
<path style=" stroke:none;fill-rule:nonzero;fill:rgb(91.764706%,83.921569%,82.352941%);fill-opacity:1;" d="M 4.8125 18.378906 L 13.890625 18.378906 L 13.890625 19.675781 L 4.8125 19.675781 Z M 4.8125 18.378906 "/>
<path style=" stroke:none;fill-rule:nonzero;fill:rgb(75.294118%,52.156863%,46.666667%);fill-opacity:1;" d="M 3.511719 5.1875 L 15.1875 5.1875 L 15.1875 6.488281 L 3.511719 6.488281 Z M 3.511719 5.1875 "/>
<path style=" stroke:none;fill-rule:nonzero;fill:rgb(67.058824%,36.470588%,29.019608%);fill-opacity:1;" d="M 15.296875 20 L 4.703125 20 C 4.523438 20 4.378906 19.855469 4.378906 19.675781 C 4.378906 19.496094 4.523438 19.351562 4.703125 19.351562 L 15.296875 19.351562 C 15.476562 19.351562 15.621094 19.496094 15.621094 19.675781 C 15.621094 19.855469 15.476562 20 15.296875 20 Z M 15.296875 20 "/>
<path style=" stroke:none;fill-rule:nonzero;fill:rgb(100%,100%,100%);fill-opacity:1;" d="M 13.566406 8.109375 L 6.433594 8.109375 C 6.253906 8.109375 6.109375 7.964844 6.109375 7.785156 C 6.109375 7.605469 6.253906 7.460938 6.433594 7.460938 L 13.566406 7.460938 C 13.746094 7.460938 13.890625 7.605469 13.890625 7.785156 C 13.890625 7.964844 13.746094 8.109375 13.566406 8.109375 Z M 13.566406 8.109375 "/>
</g>
</svg>
