<?xml version="1.0" encoding="UTF-8"?>
<svg xmlns="http://www.w3.org/2000/svg" xmlns:xlink="http://www.w3.org/1999/xlink" width="24px" height="24px" viewBox="0 0 24 24" version="1.1">
<g id="surface1">
<path style=" stroke:none;fill-rule:nonzero;fill:rgb(0%,0%,0%);fill-opacity:1;" d="M 22 7 L 16.332031 7 L 16.332031 4 C 16.332031 3.449219 15.886719 3 15.332031 3 L 8.667969 3 C 8.113281 3 7.667969 3.449219 7.667969 4 L 7.667969 11 L 2 11 C 1.449219 11 1 11.449219 1 12 L 1 20 C 1 20.550781 1.449219 21 2 21 L 22 21 C 22.550781 21 23 20.550781 23 20 L 23 8 C 23 7.449219 22.550781 7 22 7 Z M 7.667969 19 L 3 19 L 3 13 L 7.667969 13 Z M 14.332031 19 L 9.667969 19 L 9.667969 5 L 14.332031 5 Z M 21 19 L 16.332031 19 L 16.332031 9 L 21 9 Z M 21 19 "/>
</g>
</svg>
