<?xml version="1.0" encoding="iso-8859-1"?>
<!-- Uploaded to: SVG Repo, www.svgrepo.com, Generator: SVG Repo Mixer Tools -->
<!DOCTYPE svg PUBLIC "-//W3C//DTD SVG 1.1//EN" "http://www.w3.org/Graphics/SVG/1.1/DTD/svg11.dtd">
<svg height="800px" width="800px" version="1.1" id="Capa_1" xmlns="http://www.w3.org/2000/svg" xmlns:xlink="http://www.w3.org/1999/xlink" 
	 viewBox="0 0 370.32 370.32" xml:space="preserve">
<path style="fill:#020202;" d="M341.418,219.041c-12.643-12.633-29.717-19.59-48.077-19.59c-1.348,0-2.694,0.039-4.038,0.115V73.703
	c0-3.934-1.561-7.705-4.344-10.483L226.083,4.34C223.299,1.562,219.533,0,215.6,0H38.414C22.361,0,9.303,13.061,9.303,29.113
	v312.095c0,16.054,13.059,29.112,29.111,29.112h221.777c0.141,0,0.277-0.013,0.417-0.015c0.136,0.001,0.27,0.015,0.407,0.015
	c6.985,0,13.763-2.025,19.598-5.855c15.43-10.128,43.438-29.241,57.656-43.463c13.69-13.695,21.737-31.557,22.655-50.274
	C361.911,250.958,354.985,232.604,341.418,219.041z M40.916,337.907V32.414h154.088v43.577c0,10.554,8.555,19.106,19.105,19.106
	h43.58v110.307c-9.204-3.893-19.067-5.953-28.997-5.953c-18.36,0-35.434,6.957-48.079,19.593
	c-13.566,13.559-20.493,31.916-19.506,51.663c0.919,18.741,8.967,36.604,22.656,50.292c5.21,5.212,12.264,11.074,19.866,16.908
	H40.916z M335.1,269.334c-0.615,12.539-6.08,24.555-15.367,33.845c-13.156,13.159-41.934,32.519-53.693,40.237
	c-1.785,1.172-3.836,1.756-5.88,1.756c-2.043,0-4.094-0.584-5.879-1.756c-11.756-7.714-40.53-27.072-53.692-40.239
	c-9.288-9.288-14.752-21.304-15.367-33.843c-0.631-12.624,3.706-24.257,12.21-32.757c7.917-7.911,18.715-12.274,30.405-12.274
	c11.603,0,23.005,4.217,32.324,11.908c9.319-7.691,20.723-11.908,32.324-11.908c11.69,0,22.489,4.363,30.406,12.274
	C331.393,245.076,335.73,256.709,335.1,269.334z"/>
</svg>