<?xml version="1.0" encoding="iso-8859-1"?>
<!-- Uploaded to: SVG Repo, www.svgrepo.com, Generator: SVG Repo Mixer Tools -->
<!DOCTYPE svg PUBLIC "-//W3C//DTD SVG 1.1//EN" "http://www.w3.org/Graphics/SVG/1.1/DTD/svg11.dtd">
<svg fill="#000000" version="1.1" id="Capa_1" xmlns="http://www.w3.org/2000/svg" xmlns:xlink="http://www.w3.org/1999/xlink" 
	 width="800px" height="800px" viewBox="0 0 82.471 82.471"
	 xml:space="preserve">
<g>
	<g>
		<g>
			<path d="M26.457,82.471c-1.681,0-3.267-0.384-4.584-1.111c-1.06-0.586-4.541-2.82-4.851-7.004
				c-0.002-0.037-0.004-0.074-0.004-0.109c0-1.745,0.603-3.393,1.698-4.641c1.142-1.299,2.677-2.015,4.321-2.015
				c3.32,0,6.021,2.968,6.021,6.617c0,0.288-0.017,0.573-0.049,0.854c1.007-0.721,1.872-2.037,2.284-4.461
				c1.177-6.914,2.225-14.322,3.203-22.654l2.075-16.985l-6.962-0.008c-2.048,0-3.717-1.668-3.717-3.719s1.668-3.719,3.719-3.719
				h8.005l0.757-4.204c0.528-2.802,1.188-5.465,1.965-7.927c2.005-6.35,6.97-10.672,12.958-11.28C53.984,0.035,54.656,0,55.299,0
				c8.29,0,10.154,5.575,10.154,7.528c0,3.24-2.635,5.875-5.875,5.875c-3.239,0-5.875-2.636-5.875-5.875
				c0-0.354,0.057-0.727,0.16-1.124c-1.879,0.403-2.196,1.594-2.314,2.038c-0.484,1.822-1.484,6.144-2.895,15.073h6.893
				c2.05,0,3.719,1.668,3.719,3.719s-1.668,3.719-3.719,3.719l-7.74,0.006c-0.355,2.38-0.689,4.761-1.023,7.137l-0.024,0.176
				c-0.978,6.974-1.987,14.185-3.519,21.203c-1.168,5.359-2.578,11.053-5.763,16.575C35.228,79.951,30.902,82.471,26.457,82.471z
				 M20.019,74.189c0.227,2.646,2.583,4.146,3.304,4.545c0.874,0.481,1.958,0.736,3.134,0.736c3.393,0,6.699-1.931,8.424-4.92
				c2.972-5.148,4.313-10.587,5.432-15.714c1.505-6.907,2.507-14.062,3.478-20.98l0.025-0.177c0.395-2.812,0.791-5.628,1.221-8.445
				c0.111-0.732,0.74-1.273,1.482-1.273l9.029-0.007c0.396,0,0.721-0.322,0.721-0.719s-0.322-0.719-0.72-0.719h-8.644
				c-0.438,0-0.854-0.191-1.139-0.523c-0.285-0.332-0.41-0.772-0.344-1.205c1.572-10.246,2.697-15.123,3.229-17.118
				c0.438-1.644,1.881-4.401,6.633-4.401c0.291,0,0.595,0.011,0.906,0.032c0.493,0.033,0.938,0.306,1.19,0.731
				c0.252,0.425,0.278,0.947,0.071,1.396c-0.498,1.075-0.75,1.782-0.75,2.101c0,1.585,1.291,2.875,2.875,2.875
				c1.587,0,2.877-1.29,2.877-2.875c0-0.045-0.309-4.528-7.155-4.528c-0.542,0-1.112,0.03-1.701,0.089
				c-4.776,0.485-8.761,4.01-10.399,9.199c-0.74,2.349-1.372,4.895-1.875,7.567l-0.977,5.426c-0.128,0.714-0.75,1.234-1.476,1.234
				h-9.26c-0.396,0-0.719,0.322-0.719,0.719s0.322,0.719,0.719,0.719l8.656,0.01c0.429,0,0.837,0.185,1.122,0.506
				c0.285,0.322,0.417,0.75,0.365,1.175l-2.279,18.659c-0.984,8.376-2.039,15.835-3.224,22.799
				c-1.019,5.998-4.675,7.551-7.563,7.799c-0.587,0.049-1.143-0.244-1.432-0.754c-0.289-0.509-0.256-1.14,0.085-1.615
				c0.47-0.654,0.718-1.459,0.718-2.325c0-1.995-1.355-3.617-3.021-3.617c-0.77,0-1.504,0.354-2.068,0.995
				C20.367,72.273,20.03,73.195,20.019,74.189z"/>
		</g>
	</g>
</g>
</svg>