<?xml version="1.0" encoding="UTF-8"?>
<svg xmlns="http://www.w3.org/2000/svg" xmlns:xlink="http://www.w3.org/1999/xlink" width="20px" height="20px" viewBox="0 0 20 20" version="1.1">
<g id="surface1">
<path style=" stroke:none;fill-rule:nonzero;fill:rgb(0%,87.45098%,83.529412%);fill-opacity:1;" d="M 3.480469 11.007812 C 3.480469 14.671875 6.453125 17.644531 10.117188 17.644531 C 13.78125 17.644531 16.753906 14.671875 16.753906 11.007812 C 16.753906 7.34375 13.78125 4.371094 10.117188 4.371094 C 6.453125 4.371094 3.480469 7.34375 3.480469 11.007812 Z M 3.480469 11.007812 "/>
<path style=" stroke:none;fill-rule:nonzero;fill:rgb(42.352941%,0%,0%);fill-opacity:1;" d="M 10.113281 17.785156 C 6.992188 17.785156 4.289062 15.664062 3.539062 12.628906 C 3.105469 10.871094 3.382812 9.050781 4.320312 7.503906 C 5.253906 5.957031 6.738281 4.863281 8.496094 4.429688 C 9.027344 4.300781 9.574219 4.234375 10.121094 4.230469 C 13.242188 4.230469 15.945312 6.351562 16.695312 9.386719 C 17.585938 13.011719 15.363281 16.691406 11.738281 17.585938 C 11.207031 17.714844 10.660156 17.78125 10.113281 17.785156 Z M 10.121094 4.507812 C 9.597656 4.507812 9.074219 4.570312 8.5625 4.699219 C 6.875 5.113281 5.453125 6.160156 4.554688 7.644531 C 3.65625 9.132812 3.390625 10.878906 3.804688 12.5625 C 4.523438 15.476562 7.117188 17.507812 10.113281 17.507812 C 10.632812 17.507812 11.160156 17.445312 11.671875 17.316406 C 15.152344 16.460938 17.285156 12.929688 16.425781 9.453125 C 15.710938 6.539062 13.117188 4.507812 10.121094 4.507812 Z M 10.121094 4.507812 "/>
<path style=" stroke:none;fill-rule:nonzero;fill:rgb(41.960784%,1.176471%,2.352941%);fill-opacity:1;" d="M 10.035156 7.332031 C 5.433594 7.167969 0.507812 8.0625 0.4375 10.042969 C 0.367188 12.023438 5.21875 13.265625 9.820312 13.429688 C 14.421875 13.59375 19.347656 12.699219 19.417969 10.71875 C 19.488281 8.738281 14.636719 7.496094 10.035156 7.332031 Z M 19.027344 10.707031 C 18.984375 11.976562 15.039062 13.257812 9.832031 13.074219 C 4.625 12.890625 0.78125 11.328125 0.828125 10.058594 C 0.871094 8.785156 4.816406 7.503906 10.023438 7.6875 C 15.230469 7.875 19.074219 9.433594 19.027344 10.707031 Z M 19.027344 10.707031 "/>
<path style=" stroke:none;fill-rule:nonzero;fill:rgb(0%,87.45098%,83.529412%);fill-opacity:1;" d="M 4.65625 7.589844 C 4.496094 7.785156 4.335938 8.105469 4.257812 8.261719 C 5.835938 7.902344 7.695312 7.789062 9.984375 7.867188 C 12.511719 7.957031 14.609375 8.285156 16.203125 8.832031 C 16.144531 8.664062 15.929688 8.222656 15.855469 8.058594 C 14.121094 7.539062 12.175781 7.074219 10.015625 7 C 8.050781 6.929688 6.335938 7.269531 4.65625 7.589844 Z M 4.65625 7.589844 "/>
<path style=" stroke:none;fill-rule:nonzero;fill:rgb(100%,78.039216%,0%);fill-opacity:1;" d="M 10.535156 12.875 C 10.535156 13.816406 11.300781 14.582031 12.242188 14.582031 C 13.1875 14.582031 13.953125 13.816406 13.953125 12.875 C 13.953125 11.929688 13.1875 11.164062 12.242188 11.164062 C 11.300781 11.164062 10.535156 11.929688 10.535156 12.875 Z M 10.535156 12.875 "/>
<path style=" stroke:none;fill-rule:nonzero;fill:rgb(42.352941%,0%,0%);fill-opacity:1;" d="M 12.246094 14.699219 C 11.738281 14.699219 11.253906 14.488281 10.910156 14.117188 C 10.578125 13.761719 10.402344 13.292969 10.421875 12.808594 C 10.457031 11.800781 11.289062 11.023438 12.308594 11.050781 C 13.3125 11.085938 14.101562 11.933594 14.066406 12.9375 C 14.035156 13.921875 13.226562 14.699219 12.246094 14.699219 Z M 12.242188 11.28125 C 11.382812 11.277344 10.675781 11.957031 10.648438 12.816406 C 10.632812 13.242188 10.789062 13.652344 11.078125 13.960938 C 11.363281 14.273438 11.765625 14.453125 12.1875 14.46875 L 12.246094 14.46875 C 13.105469 14.472656 13.808594 13.789062 13.835938 12.929688 C 13.867188 12.050781 13.179688 11.3125 12.300781 11.28125 Z M 12.242188 11.28125 "/>
<path style=" stroke:none;fill-rule:nonzero;fill:rgb(100%,78.039216%,0%);fill-opacity:1;" d="M 15.375 5.367188 C 15.375 5.566406 15.539062 5.730469 15.738281 5.730469 C 15.9375 5.730469 16.101562 5.566406 16.101562 5.367188 C 16.101562 5.164062 15.9375 5.003906 15.738281 5.003906 C 15.539062 5.003906 15.375 5.164062 15.375 5.367188 Z M 15.375 5.367188 "/>
<path style=" stroke:none;fill-rule:nonzero;fill:rgb(42.352941%,0%,0%);fill-opacity:1;" d="M 15.738281 5.84375 L 15.722656 5.84375 C 15.457031 5.835938 15.253906 5.613281 15.261719 5.347656 C 15.269531 5.09375 15.480469 4.886719 15.738281 4.890625 C 16.019531 4.898438 16.226562 5.121094 16.214844 5.382812 C 16.207031 5.640625 15.996094 5.84375 15.738281 5.84375 Z M 15.746094 5.117188 C 15.601562 5.117188 15.496094 5.222656 15.488281 5.355469 C 15.484375 5.496094 15.59375 5.609375 15.730469 5.617188 L 15.738281 5.730469 L 15.738281 5.617188 C 15.871094 5.617188 15.984375 5.507812 15.988281 5.375 C 15.992188 5.238281 15.882812 5.121094 15.746094 5.117188 Z M 15.746094 5.117188 "/>
<path style=" stroke:none;fill-rule:nonzero;fill:rgb(100%,78.039216%,0%);fill-opacity:1;" d="M 1.367188 8.167969 C 1.367188 8.664062 1.769531 9.070312 2.265625 9.070312 C 2.765625 9.070312 3.167969 8.664062 3.167969 8.167969 C 3.167969 7.671875 2.765625 7.265625 2.265625 7.265625 C 1.769531 7.265625 1.367188 7.671875 1.367188 8.167969 Z M 1.367188 8.167969 "/>
<path style=" stroke:none;fill-rule:nonzero;fill:rgb(42.352941%,0%,0%);fill-opacity:1;" d="M 2.269531 9.183594 L 2.230469 9.183594 C 1.671875 9.164062 1.230469 8.691406 1.25 8.132812 C 1.269531 7.585938 1.71875 7.152344 2.265625 7.152344 L 2.304688 7.152344 C 2.570312 7.164062 2.828125 7.277344 3.011719 7.476562 C 3.195312 7.671875 3.292969 7.933594 3.28125 8.203125 C 3.265625 8.75 2.816406 9.183594 2.269531 9.183594 Z M 2.265625 7.382812 C 1.84375 7.378906 1.492188 7.714844 1.480469 8.140625 C 1.464844 8.574219 1.804688 8.9375 2.238281 8.953125 L 2.265625 8.957031 C 2.691406 8.957031 3.039062 8.621094 3.054688 8.195312 C 3.0625 7.988281 2.984375 7.785156 2.84375 7.632812 C 2.699219 7.480469 2.503906 7.390625 2.292969 7.382812 Z M 2.265625 7.382812 "/>
<path style=" stroke:none;fill-rule:nonzero;fill:rgb(74.509804%,83.529412%,91.372549%);fill-opacity:1;" d="M 7.46875 7.207031 C 7.46875 7.207031 6.785156 8.203125 8.257812 10.148438 L 9.148438 8.398438 Z M 7.46875 7.207031 "/>
<path style=" stroke:none;fill-rule:nonzero;fill:rgb(42.352941%,0%,0%);fill-opacity:1;" d="M 8.28125 10.40625 L 8.148438 10.230469 C 6.636719 8.230469 7.328125 7.171875 7.355469 7.128906 L 7.4375 7.011719 L 9.324219 8.355469 Z M 7.527344 7.414062 C 7.421875 7.71875 7.289062 8.550781 8.238281 9.886719 L 8.972656 8.441406 Z M 7.527344 7.414062 "/>
<path style=" stroke:none;fill-rule:nonzero;fill:rgb(74.509804%,83.529412%,91.372549%);fill-opacity:1;" d="M 10.480469 5.148438 C 10.480469 5.148438 11.65625 4.875 12.933594 6.953125 L 10.984375 7.144531 Z M 10.480469 5.148438 "/>
<path style=" stroke:none;fill-rule:nonzero;fill:rgb(42.352941%,0%,0%);fill-opacity:1;" d="M 10.878906 7.292969 L 10.3125 5.046875 L 10.449219 5.015625 C 10.460938 5.011719 10.523438 5 10.625 5 C 11.007812 5 12.007812 5.183594 13.050781 6.882812 L 13.167969 7.066406 Z M 10.652344 5.273438 L 11.085938 6.996094 L 12.699219 6.839844 C 11.800781 5.472656 10.996094 5.285156 10.652344 5.273438 Z M 10.652344 5.273438 "/>
<path style=" stroke:none;fill-rule:nonzero;fill:rgb(74.509804%,83.529412%,91.372549%);fill-opacity:1;" d="M 10.148438 4.667969 C 8.96875 2.945312 7.34375 2.003906 6.511719 2.570312 C 5.683594 3.140625 5.964844 4.996094 7.144531 6.71875 C 7.910156 7.84375 8.867188 8.632812 9.671875 8.890625 C 9.675781 8.890625 9.683594 8.894531 9.6875 8.894531 C 9.714844 8.898438 10.101562 7.886719 11.1875 7.875 C 11.199219 7.875 11.210938 7.871094 11.222656 7.863281 C 11.234375 7.855469 11.246094 7.839844 11.25 7.824219 C 11.25 7.820312 11.25 7.816406 11.25 7.8125 C 11.300781 6.96875 10.914062 5.789062 10.148438 4.667969 Z M 10.148438 4.667969 "/>
<path style=" stroke:none;fill-rule:nonzero;fill:rgb(42.352941%,0%,0%);fill-opacity:1;" d="M 9.6875 9.03125 L 9.648438 9.027344 L 9.609375 9.011719 C 8.761719 8.742188 7.792969 7.910156 7.03125 6.796875 C 6.449219 5.945312 6.0625 5.035156 5.941406 4.234375 C 5.8125 3.394531 5.988281 2.765625 6.433594 2.460938 C 6.617188 2.332031 6.839844 2.269531 7.085938 2.269531 C 8.035156 2.269531 9.3125 3.203125 10.261719 4.589844 C 11.015625 5.699219 11.4375 6.898438 11.386719 7.804688 L 11.386719 7.816406 L 11.382812 7.855469 C 11.375 7.902344 11.34375 7.945312 11.300781 7.976562 C 11.265625 8 11.226562 8.011719 11.191406 8.011719 C 10.625 8.019531 10.171875 8.320312 9.84375 8.90625 C 9.808594 8.972656 9.773438 9.03125 9.6875 9.03125 Z M 7.085938 2.542969 C 6.894531 2.542969 6.726562 2.59375 6.589844 2.683594 C 6.234375 2.929688 6.101562 3.464844 6.210938 4.191406 C 6.328125 4.953125 6.699219 5.824219 7.257812 6.640625 C 7.949219 7.65625 8.847656 8.445312 9.628906 8.730469 C 9.992188 8.101562 10.492188 7.769531 11.113281 7.742188 C 11.144531 6.90625 10.734375 5.769531 10.035156 4.746094 C 9.148438 3.449219 7.9375 2.542969 7.085938 2.542969 Z M 7.085938 2.542969 "/>
<path style=" stroke:none;fill-rule:nonzero;fill:rgb(100%,100%,100%);fill-opacity:1;" d="M 10.597656 5.542969 L 7.738281 7.476562 C 7.851562 7.597656 7.96875 7.714844 8.089844 7.824219 L 10.792969 6 C 10.734375 5.847656 10.667969 5.695312 10.597656 5.542969 Z M 10.597656 5.542969 "/>
<path style=" stroke:none;fill-rule:nonzero;fill:rgb(42.352941%,0%,0%);fill-opacity:1;" d="M 8.078125 8 L 8 7.925781 C 7.875 7.8125 7.753906 7.695312 7.636719 7.570312 L 7.527344 7.453125 L 10.652344 5.339844 L 10.722656 5.488281 C 10.792969 5.640625 10.859375 5.792969 10.917969 5.953125 L 10.957031 6.054688 Z M 7.949219 7.5 C 8 7.550781 8.050781 7.601562 8.105469 7.648438 L 10.625 5.949219 C 10.597656 5.882812 10.570312 5.816406 10.539062 5.75 Z M 7.949219 7.5 "/>
<path style=" stroke:none;fill-rule:nonzero;fill:rgb(100%,100%,100%);fill-opacity:1;" d="M 11.050781 6.488281 L 8.511719 8.226562 C 8.621094 8.320312 8.738281 8.402344 8.867188 8.464844 L 11.15625 6.921875 C 11.144531 6.800781 11.09375 6.601562 11.050781 6.488281 Z M 11.050781 6.488281 "/>
<path style=" stroke:none;fill-rule:nonzero;fill:rgb(42.352941%,0%,0%);fill-opacity:1;" d="M 8.878906 8.625 L 8.808594 8.589844 C 8.667969 8.519531 8.539062 8.429688 8.421875 8.328125 L 8.289062 8.210938 L 11.117188 6.277344 L 11.179688 6.441406 C 11.226562 6.566406 11.28125 6.777344 11.292969 6.910156 L 11.296875 6.992188 Z M 8.742188 8.234375 C 8.78125 8.257812 8.820312 8.285156 8.859375 8.304688 L 11.007812 6.855469 C 11 6.808594 10.988281 6.757812 10.976562 6.707031 Z M 8.742188 8.234375 "/>
<path style=" stroke:none;fill-rule:nonzero;fill:rgb(92.54902%,95.294118%,99.607843%);fill-opacity:1;" d="M 7.269531 4.820312 C 7.269531 5.253906 7.617188 5.601562 8.046875 5.601562 C 8.476562 5.601562 8.828125 5.253906 8.828125 4.820312 C 8.828125 4.390625 8.476562 4.042969 8.046875 4.042969 C 7.617188 4.042969 7.269531 4.390625 7.269531 4.820312 Z M 7.269531 4.820312 "/>
<path style=" stroke:none;fill-rule:nonzero;fill:rgb(42.352941%,0%,0%);fill-opacity:1;" d="M 8.046875 5.738281 C 8.03125 5.738281 8.015625 5.738281 7.996094 5.738281 C 7.753906 5.722656 7.527344 5.613281 7.363281 5.433594 C 7.203125 5.253906 7.117188 5.015625 7.132812 4.773438 C 7.160156 4.269531 7.589844 3.875 8.097656 3.90625 C 8.339844 3.917969 8.566406 4.027344 8.730469 4.210938 C 8.890625 4.390625 8.976562 4.628906 8.960938 4.871094 C 8.9375 5.359375 8.535156 5.738281 8.046875 5.738281 Z M 8.046875 4.179688 C 7.707031 4.179688 7.425781 4.445312 7.40625 4.785156 C 7.394531 4.957031 7.453125 5.125 7.570312 5.25 C 7.683594 5.378906 7.84375 5.453125 8.011719 5.464844 L 8.046875 5.464844 C 8.390625 5.464844 8.667969 5.199219 8.6875 4.855469 C 8.699219 4.6875 8.640625 4.519531 8.527344 4.394531 C 8.410156 4.265625 8.253906 4.191406 8.082031 4.179688 Z M 8.046875 4.179688 "/>
<path style=" stroke:none;fill-rule:nonzero;fill:rgb(74.509804%,83.529412%,91.372549%);fill-opacity:1;" d="M 7.449219 4.554688 C 7.570312 4.347656 7.832031 4.269531 8.082031 4.3125 C 8.636719 4.40625 8.660156 5.066406 8.632812 5.132812 C 8.761719 4.808594 8.621094 4.445312 8.308594 4.292969 C 7.996094 4.140625 7.621094 4.253906 7.449219 4.554688 Z M 7.449219 4.554688 "/>
</g>
</svg>
