<?xml version="1.0" encoding="iso-8859-1"?>
<!-- Uploaded to: SVG Repo, www.svgrepo.com, Generator: SVG Repo Mixer Tools -->
<svg fill="#000000" height="800px" width="800px" version="1.1" id="Layer_1" xmlns="http://www.w3.org/2000/svg" xmlns:xlink="http://www.w3.org/1999/xlink" 
	 viewBox="0 0 327.433 327.433" xml:space="preserve">
<g id="XMLID_88_">
	<path id="XMLID_89_" d="M150.402,104.418c0-41.465-33.735-75.2-75.201-75.2c-0.163,0-0.326,0.002-0.488,0.008H15
		c-8.284,0-15,6.716-15,15v237.996c0,8.284,6.716,15,15,15c8.284,0,15-6.716,15-15V179.627h45.201c0.15,0,0.299-0.002,0.449-0.006
		c24.719,0.24,44.752,20.424,44.752,45.199v57.401c0,8.284,6.716,15,15,15c8.284,0,15-6.716,15-15V224.82
		c0-24.597-11.871-46.472-30.184-60.201C138.531,150.89,150.402,129.015,150.402,104.418z M75.201,149.619H30V59.225h45.201
		c0.142,0,0.282-0.002,0.423-0.006c24.729,0.229,44.778,20.417,44.778,45.198C120.402,129.341,100.125,149.619,75.201,149.619z"/>
	<path id="XMLID_92_" d="M253.717,92.075c-16.367,0-31.5,5.368-43.746,14.428c-0.303-8.017-6.88-14.428-14.971-14.428
		c-8.284,0-15,6.716-15,15v176.141c0,8.284,6.716,15,15,15c8.284,0,15-6.716,15-15v-58.115c12.24,9.046,27.362,14.407,43.717,14.407
		c40.647,0,73.716-33.069,73.716-73.716C327.433,125.144,294.364,92.075,253.717,92.075z M253.717,209.507
		c-24.106,0-43.717-19.611-43.717-43.716c0-24.105,19.611-43.717,43.717-43.717c24.105,0,43.716,19.611,43.716,43.717
		C297.433,189.897,277.822,209.507,253.717,209.507z"/>
</g>
</svg>