<?xml version="1.0" encoding="utf-8"?>
<!-- Uploaded to: SVG Repo, www.svgrepo.com, Generator: SVG Repo Mixer Tools -->
<svg fill="#000000" version="1.1" id="Layer_1" xmlns="http://www.w3.org/2000/svg" xmlns:xlink="http://www.w3.org/1999/xlink" 
	 width="800px" height="800px" viewBox="0 0 260 241" xml:space="preserve">
<path d="M208.5,98.3c0-9.8,7.5-24.7,14.5-36.4C202.5,26.3,164.2,2.3,120.2,2.3C54.9,2.3,2,55.2,2,120.5s52.9,118.2,118.2,118.2
	c61.2,0,111.5-46.4,117.6-106C221.6,132.3,208.5,117,208.5,98.3z M48.4,87.6l43.8-17.1l4.7,12L53.1,99.7L48.4,87.6z M69.9,142.7
	c-9.2-1.3-15.4-11.4-13.8-22.5c1.6-11.1,10.4-19,19.6-17.7c9.2,1.3,15.4,11.4,13.8,22.5C87.9,136.1,79.2,144.1,69.9,142.7z
	 M120.7,199.9c-17.1,0-30.9-5.8-30.9-12.9c0-7.1,13.9-12.9,30.9-12.9c17.1,0,30.9,5.8,30.9,12.9
	C151.6,194.1,137.8,199.9,120.7,199.9z M165.1,142.7c-9.5,1.5-18.6-6.3-20.3-17.4c-1.7-11.1,4.6-21.3,14-22.8
	c9.5-1.5,18.6,6.3,20.3,17.4C180.8,131,174.6,141.2,165.1,142.7z M186.4,99.7l-43.8-17.1l4.7-12l43.8,17.1L186.4,99.7z M258,98.3
	c0,13.1-8.7,23.7-19.4,23.7h-0.2c-10.6-0.1-19.3-10.7-19.3-23.7c0-10.3,11.1-29.5,19.4-41.3C246.4,68.9,258,84.3,258,98.3z"/>
</svg>