<?xml version="1.0" encoding="iso-8859-1"?>
<!-- Uploaded to: SVG Repo, www.svgrepo.com, Generator: SVG Repo Mixer Tools -->
<!DOCTYPE svg PUBLIC "-//W3C//DTD SVG 1.1//EN" "http://www.w3.org/Graphics/SVG/1.1/DTD/svg11.dtd">
<svg fill="#000000" version="1.1" id="Layer_1" xmlns="http://www.w3.org/2000/svg" xmlns:xlink="http://www.w3.org/1999/xlink" 
	 width="800px" height="800px" viewBox="0 0 612 612" xml:space="preserve">
<g>
	<g>
		<g>
			<path d="M455.141,430.054c-0.666-50.389-26.324-94.818-65.085-121.248c7.906-5.531,15.362-11.88,22.26-19.03
				c27.649-28.671,42.877-66.319,42.877-106.008c0-0.61-0.32-1.822-0.32-1.822c0-73.843-56.159-136.929-128.524-147.039V0h-51.689
				v36.877c-24.811,5.475-47.554,17.322-66.162,33.66V33.081h-51.689v545.838h51.689v-36.027
				c18.608,16.203,41.352,27.869,66.162,33.244V612h51.689v-33.897c31.014-4.29,61.757-18.621,84.882-41.466
				c28.123-27.783,43.787-64.923,43.787-104.581C455.019,431.896,455.141,430.054,455.141,430.054z M274.661,521.649
				c-37.216-12.977-64.742-48.894-64.742-91.596h-0.114l-0.62-95.107h65.474v186.703H274.661z M274.661,283.257h-66.162v-78.103
				c0,0-0.343-22.346,1.811-37.725c5.024-35.856,31.27-65.089,64.351-76.566V283.257z M326.35,87.838
				c43.419,9.511,76.807,48.898,76.807,95.927c0,26.233-10.264,51.139-28.574,70.127c-13.447,13.944-29.624,23.254-48.232,27.203
				V87.838L326.35,87.838z M326.35,524.709V337.018c43.419,9.199,76.217,48.064,76.444,94.559
				C402.087,477.625,369.769,515.515,326.35,524.709z"/>
		</g>
	</g>
</g>
</svg>