<?xml version="1.0" ?>
<!-- Uploaded to: SVG Repo, www.svgrepo.com, Generator: SVG Repo Mixer Tools -->
<svg width="800px" height="800px" viewBox="0 0 512 512" id="svg2793" style="fill-rule:evenodd;clip-rule:evenodd;stroke-linejoin:round;stroke-miterlimit:2;" version="1.1" xml:space="preserve" xmlns="http://www.w3.org/2000/svg" xmlns:cc="http://creativecommons.org/ns#" xmlns:dc="http://purl.org/dc/elements/1.1/" xmlns:rdf="http://www.w3.org/1999/02/22-rdf-syntax-ns#" xmlns:serif="http://www.serif.com/" xmlns:svg="http://www.w3.org/2000/svg">
<defs id="defs2797"/>
<g id="_37-Pie-Chart" style="display:inline" transform="translate(-2048,-7168)">
<g id="g1997" transform="translate(2381.72,7219.69)">
<path d="M 0,148.28 V 0.682 C 78.091,7.827 140.453,70.189 147.598,148.28 Z M -15,-30 c -8.284,0 -15,6.716 -15,15 v 178.28 c 0,8.284 6.716,15 15,15 h 178.28 c 8.284,0 15,-6.716 15,-15 C 178.28,56.705 91.575,-30 -15,-30" id="path1995" style="fill-rule:nonzero"/>
</g>
<g id="g2001" transform="translate(2324.48,7209.3)">
<path d="M 0,429.41 V 245.91 H 183.5 C 176.179,343.742 97.832,422.089 0,429.41 M -180.098,245.91 H -30 v 150.097 c -79.465,-7.16 -142.939,-70.632 -150.098,-150.097 M -30,-0.079 V 215.91 H -246 C -238.561,100.204 -145.712,7.359 -30,-0.079 M 199.06,215.91 H 0 V -15.56 c 0,-8.284 -6.716,-15 -15,-15 -144.181,0 -261.48,117.295 -261.48,261.47 0,8.284 6.715,15 15,15 h 51.279 c 7.309,96.015 84.185,172.891 180.201,180.2 v 18.86 c 0,8.284 6.716,15 15,15 126.304,0 229.06,-102.756 229.06,-229.06 0,-8.284 -6.716,-15 -15,-15" id="path1999" style="fill-rule:nonzero"/>
</g>
</g>
</svg>